<svg id="Layer_1" data-name="Layer 1" xmlns="http://www.w3.org/2000/svg" viewBox="0 0 792.62 798.53"><defs><style>.cls-1{fill:#85c5ae;}.cls-2{fill:#2a3220;}.cls-3{fill:#fff;}</style></defs><title>nomos_metro_gangreserve</title><circle class="cls-1" cx="64.32" cy="396.64" r="13.89"/><circle class="cls-1" cx="728.31" cy="396.65" r="13.89"/><circle class="cls-1" cx="396.32" cy="64.65" r="13.89"/><circle class="cls-2" cx="355.34" cy="6.79" r="4.5"/><circle class="cls-2" cx="314.82" cy="13.21" r="4.5"/><circle class="cls-2" cx="275.19" cy="23.82" r="4.5"/><circle class="cls-2" cx="236.89" cy="38.52" r="4.5"/><circle class="cls-2" cx="165.92" cy="79.49" r="4.5"/><circle class="cls-2" cx="134.03" cy="105.3" r="4.5"/><circle class="cls-2" cx="105.02" cy="134.31" r="4.5"/><circle class="cls-2" cx="79.19" cy="166.2" r="4.5"/><circle class="cls-2" cx="38.22" cy="237.16" r="4.5"/><circle class="cls-2" cx="23.51" cy="275.46" r="4.5"/><circle class="cls-2" cx="12.89" cy="315.09" r="4.5"/><circle class="cls-2" cx="6.47" cy="355.61" r="4.5"/><circle class="cls-2" cx="6.46" cy="437.56" r="4.5"/><circle class="cls-2" cx="12.87" cy="478.08" r="4.5"/><circle class="cls-2" cx="23.49" cy="517.71" r="4.5"/><circle class="cls-2" cx="38.19" cy="556.01" r="4.5"/><circle class="cls-2" cx="79.16" cy="626.98" r="4.5"/><circle class="cls-2" cx="104.97" cy="658.87" r="4.5"/><circle class="cls-2" cx="133.98" cy="687.88" r="4.5"/><circle class="cls-2" cx="165.86" cy="713.71" r="4.5"/><circle class="cls-2" cx="236.83" cy="754.68" r="4.5"/><circle class="cls-2" cx="275.13" cy="769.39" r="4.5"/><circle class="cls-2" cx="314.76" cy="780.01" r="4.5"/><circle class="cls-2" cx="477.75" cy="780.03" r="4.5"/><circle class="cls-2" cx="517.38" cy="769.41" r="4.5"/><circle class="cls-2" cx="555.68" cy="754.71" r="4.5"/><circle class="cls-2" cx="626.65" cy="713.74" r="4.5"/><circle class="cls-2" cx="658.54" cy="687.93" r="4.5"/><circle class="cls-2" cx="687.55" cy="658.92" r="4.5"/><circle class="cls-2" cx="713.37" cy="627.03" r="4.5"/><circle class="cls-2" cx="754.35" cy="556.07" r="4.5"/><circle class="cls-2" cx="769.06" cy="517.77" r="4.5"/><circle class="cls-2" cx="779.68" cy="478.14" r="4.5"/><circle class="cls-2" cx="786.1" cy="437.62" r="4.5"/><circle class="cls-2" cx="786.11" cy="355.68" r="4.5"/><circle class="cls-2" cx="779.69" cy="315.15" r="4.5"/><circle class="cls-2" cx="769.08" cy="275.52" r="4.5"/><circle class="cls-2" cx="754.38" cy="237.22" r="4.5"/><circle class="cls-2" cx="713.41" cy="166.25" r="4.5"/><circle class="cls-2" cx="687.59" cy="134.36" r="4.5"/><circle class="cls-2" cx="658.59" cy="105.35" r="4.5"/><circle class="cls-2" cx="626.7" cy="79.52" r="4.5"/><circle class="cls-2" cx="555.74" cy="38.55" r="4.5"/><circle class="cls-2" cx="517.44" cy="23.84" r="4.5"/><circle class="cls-2" cx="477.81" cy="13.22" r="4.5"/><circle class="cls-2" cx="437.29" cy="6.8" r="4.5"/><circle class="cls-2" cx="230.32" cy="109.12" r="8.57"/><circle class="cls-2" cx="108.8" cy="230.63" r="8.57"/><circle class="cls-2" cx="108.78" cy="562.63" r="8.57"/><circle class="cls-2" cx="230.3" cy="684.15" r="8.57"/><circle class="cls-2" cx="562.29" cy="684.16" r="8.57"/><circle class="cls-2" cx="683.81" cy="562.65" r="8.57"/><circle class="cls-2" cx="683.82" cy="230.65" r="8.57"/><circle class="cls-2" cx="562.31" cy="109.13" r="8.57"/><path d="M397.09,10.54a9.53,9.53,0,0,0-2,.12,7.93,7.93,0,0,0-6.78,6.93h.09a5.81,5.81,0,0,1,4.71-2.25c3.45,0,5.88,2.49,5.88,6.3,0,3.57-2.43,6.87-6.48,6.87s-6.9-3.24-6.9-8.31a12.26,12.26,0,0,1,3.3-8.79,10.62,10.62,0,0,1,6.24-2.88,12.68,12.68,0,0,1,1.92-.15Zm-.75,11.25c0-2.79-1.59-4.47-4-4.47a4.34,4.34,0,0,0-3.78,2.4,2.25,2.25,0,0,0-.3,1.17c.06,3.21,1.53,5.58,4.29,5.58C394.81,26.47,396.34,24.58,396.34,21.79Z" transform="translate(-3.68 -8.35)"/><path d="M414.31,18.22c0,6.63-2.46,10.29-6.78,10.29-3.81,0-6.39-3.57-6.45-10s2.82-10.14,6.78-10.14S414.31,12,414.31,18.22Zm-10.59.3c0,5.07,1.56,8,4,8,2.7,0,4-3.15,4-8.13,0-4.8-1.23-7.95-4-7.95C405.4,10.39,403.72,13.21,403.72,18.52Z" transform="translate(-3.68 -8.35)"/><path d="M200.88,64.9l-6.45,3.72,1.86,4.71a9.75,9.75,0,0,1,1.32-.9,8.24,8.24,0,0,1,4.16-1.19,5.55,5.55,0,0,1,4.92,3c1.9,3.29.7,7.28-3,9.39A9.42,9.42,0,0,1,198.92,85l-.43-2.07a8.68,8.68,0,0,0,4.15-1.15c2.16-1.24,3.19-3.71,1.89-6s-3.64-2.89-7-.94a19.72,19.72,0,0,0-2.23,1.54l-3.59-8.74L199.77,63Z" transform="translate(-3.68 -8.35)"/><path d="M214.2,57.2l-6.44,3.72,1.86,4.72a10.22,10.22,0,0,1,1.31-.9,8.2,8.2,0,0,1,4.16-1.19A5.56,5.56,0,0,1,220,66.49c1.9,3.3.7,7.28-3,9.4a9.65,9.65,0,0,1-4.81,1.39l-.43-2.07A8.79,8.79,0,0,0,216,74.06c2.15-1.25,3.19-3.71,1.88-6s-3.64-2.88-7-.93a19.67,19.67,0,0,0-2.24,1.53L205,60l8.08-4.67Z" transform="translate(-3.68 -8.35)"/><path d="M57.5,210l-3.71,6.44,4,3.16a9.87,9.87,0,0,1,.69-1.44,8.26,8.26,0,0,1,3-3.11,5.55,5.55,0,0,1,5.73.09c3.3,1.9,4.26,6,2.14,9.61a9.4,9.4,0,0,1-3.47,3.61l-1.41-1.57a8.79,8.79,0,0,0,3-3.07c1.25-2.16.91-4.82-1.35-6.12s-4.6-.68-6.55,2.7a22.16,22.16,0,0,0-1.17,2.44L50.92,217l4.66-8.08Z" transform="translate(-3.68 -8.35)"/><path d="M72.2,199.21c5.74,3.31,7.68,7.27,5.52,11-1.9,3.3-6.29,3.75-11.9.58s-7.37-7.51-5.39-10.94S66.82,196.1,72.2,199.21Zm-5,9.32c4.39,2.53,7.67,2.62,8.87.55,1.35-2.34-.73-5-5-7.52-4.15-2.4-7.5-2.91-8.86-.55C61,203,62.57,205.88,67.16,208.53Z" transform="translate(-3.68 -8.35)"/><path d="M23.18,410.86H17.87v9.06H16.13l-12.45-8.7v-2.84H15.8v-2.74h2.07v2.74h5.31Zm-7.38,0H9.29q-1.53,0-3.06-.09v.09c1.14.6,2,1.08,2.88,1.62l6.63,4.77h.06Z" transform="translate(-3.68 -8.35)"/><path d="M5.9,392v7.43l5,.75a10.43,10.43,0,0,1-.12-1.59,8.24,8.24,0,0,1,1.05-4.2,5.57,5.57,0,0,1,5-2.78c3.81,0,6.66,3,6.66,7.26a9.53,9.53,0,0,1-1.2,4.85l-2-.66a8.73,8.73,0,0,0,1.08-4.17c0-2.49-1.62-4.61-4.23-4.61s-4.32,1.7-4.32,5.6a20.17,20.17,0,0,0,.21,2.7l-9.36-1.26V392Z" transform="translate(-3.68 -8.35)"/><path d="M53.09,598.48l4.59-2.65L53.15,588l1.51-.87,15.13,1.31,1.43,2.47L60.72,597l1.37,2.36-1.8,1L58.93,598l-4.6,2.66Zm6.39-3.69,5.63-3.25c.89-.51,1.79-1,2.7-1.46l0-.07c-1.28,0-2.25,0-3.3,0l-8.13-.81,0,0Z" transform="translate(-3.68 -8.35)"/><path d="M71.81,611c-5.75,3.31-10.15,3-12.31-.73-1.9-3.3-.1-7.32,5.46-10.6s10.19-2.62,12.17.8S77.18,607.88,71.81,611Zm-5.56-9c-4.39,2.54-6.1,5.33-4.9,7.41,1.35,2.34,4.72,1.88,9-.61s6.27-5,4.91-7.41C74.13,599.35,70.85,599.31,66.25,602Z" transform="translate(-3.68 -8.35)"/><path d="M191.3,739.62a8.89,8.89,0,0,0,3.12,3.23c2.94,1.69,4.93.35,5.71-1.07,1.34-2.38-.2-4.62-2.41-5.9l-1.27-.73,1-1.72,1.27.74c1.66,1,4.26,1.32,5.42-.68.78-1.36.61-3-1.5-4.26a7.14,7.14,0,0,0-4-.83l.36-2a9.27,9.27,0,0,1,5.17,1.25c3.33,1.92,3.69,4.76,2.51,6.82-1,1.74-2.9,2.62-5.41,2.17l0,0a5.1,5.1,0,0,1,1.26,6.52c-1.56,2.7-5,3.85-9.08,1.51a9.84,9.84,0,0,1-3.73-3.68Z" transform="translate(-3.68 -8.35)"/><path d="M221.29,740.48l-6.45-3.72-3.15,4a10.39,10.39,0,0,1,1.44.69,8.26,8.26,0,0,1,3.11,3,5.55,5.55,0,0,1-.09,5.73c-1.91,3.3-6,4.25-9.62,2.14a9.69,9.69,0,0,1-3.61-3.47l1.58-1.41a8.79,8.79,0,0,0,3.07,3c2.16,1.24,4.81.91,6.12-1.36s.68-4.59-2.7-6.54a19.67,19.67,0,0,0-2.44-1.17l5.77-7.47,8.08,4.66Z" transform="translate(-3.68 -8.35)"/><path d="M586.42,756l-.82-1.4.79-2.78c1.94-6.59,2.63-9.9,1.19-12.46-1-1.72-2.74-2.82-5.26-1.37a6.7,6.7,0,0,0-2.76,3.5l-1.65-1.19a8.49,8.49,0,0,1,3.79-4.47c3.63-2.1,6.61-.49,8,1.92,1.8,3.12,1,6.94-.58,12.43l-.63,2,0,0,7.58-4.38,1.1,1.89Z" transform="translate(-3.68 -8.35)"/><path d="M601.18,727.5l-6.44,3.72,1.86,4.71a10.32,10.32,0,0,1,1.31-.89,8.28,8.28,0,0,1,4.16-1.2,5.58,5.58,0,0,1,4.93,2.95c1.9,3.3.7,7.28-3,9.4a9.67,9.67,0,0,1-4.81,1.39l-.43-2.07a8.79,8.79,0,0,0,4.15-1.15c2.15-1.25,3.19-3.72,1.88-6s-3.64-2.88-7-.93a18.8,18.8,0,0,0-2.24,1.53L592,730.24l8.08-4.66Z" transform="translate(-3.68 -8.35)"/><path d="M736.93,615.75l-1.4-.82-.71-2.79c-1.61-6.68-2.67-9.89-5.2-11.39-1.71-1-3.78-1.07-5.23,1.45a6.6,6.6,0,0,0-.64,4.41l-2-.21a8.55,8.55,0,0,1,1-5.77c2.1-3.63,5.48-3.73,7.9-2.33,3.11,1.8,4.33,5.51,5.7,11.05l.47,2.07,0,0,4.38-7.59,1.9,1.09Z" transform="translate(-3.68 -8.35)"/><path d="M742.48,586.21c5.74,3.32,7.68,7.28,5.52,11-1.9,3.3-6.28,3.75-11.9.58s-7.37-7.52-5.39-10.94S737.1,583.11,742.48,586.21Zm-5,9.33c4.39,2.53,7.66,2.62,8.86.54,1.35-2.34-.73-5-5-7.52-4.15-2.4-7.49-2.91-8.86-.54C731.25,590,732.85,592.88,737.45,595.54Z" transform="translate(-3.68 -8.35)"/><path d="M793.84,396.69v-.06L792,393.24l2-.51L796.3,397v2.25H776.8v-2.55Z" transform="translate(-3.68 -8.35)"/><path d="M794.08,418v-7.44l-5-.75a10.43,10.43,0,0,1,.12,1.59,8.24,8.24,0,0,1-1.05,4.2,5.56,5.56,0,0,1-5,2.79c-3.81,0-6.66-3-6.66-7.26a9.55,9.55,0,0,1,1.2-4.86l2,.66a8.73,8.73,0,0,0-1.08,4.17c0,2.49,1.62,4.62,4.23,4.62s4.32-1.71,4.32-5.61a20.17,20.17,0,0,0-.21-2.7l9.36,1.26V418Z" transform="translate(-3.68 -8.35)"/><path d="M736.92,200.88l0-.06-3.28-2,1.49-1.44,4.1,2.55,1.13,2-16.89,9.74-1.27-2.2Z" transform="translate(-3.68 -8.35)"/><path d="M742.1,224c-5.74,3.31-10.14,3-12.3-.73-1.9-3.3-.1-7.32,5.45-10.6s10.2-2.62,12.17.81S747.48,220.9,742.1,224Zm-5.55-9c-4.39,2.54-6.11,5.33-4.91,7.41,1.35,2.34,4.73,1.88,9-.61,4.15-2.4,6.27-5,4.9-7.4C744.43,212.38,741.15,212.33,736.55,215Z" transform="translate(-3.68 -8.35)"/><path d="M592.45,69.5c-3.32,5.75-7.28,7.69-11,5.52-3.3-1.9-3.75-6.28-.57-11.9s7.51-7.37,10.94-5.39S595.55,64.13,592.45,69.5Zm-9.32-5c-2.54,4.39-2.63,7.66-.55,8.86,2.34,1.35,5-.73,7.52-5s2.91-7.5.55-8.87C588.65,58.27,585.78,59.87,583.13,64.47Z" transform="translate(-3.68 -8.35)"/><path d="M608.29,70.2l-6.44-3.72-3.15,4a11.68,11.68,0,0,1,1.43.69,8.26,8.26,0,0,1,3.11,3,5.57,5.57,0,0,1-.08,5.74c-1.91,3.3-6,4.25-9.62,2.14a9.62,9.62,0,0,1-3.61-3.47l1.58-1.42a8.63,8.63,0,0,0,3.07,3c2.15,1.24,4.81.9,6.11-1.36s.68-4.59-2.69-6.54a19.7,19.7,0,0,0-2.45-1.17l5.77-7.48,8.08,4.67Z" transform="translate(-3.68 -8.35)"/><path d="M310.71,803.25c-.06-1.13-.13-2.48-.12-3.49h0c-.27,1-.61,2-1,3.07l-1.43,3.92h-.79L306,802.9c-.39-1.14-.71-2.18-.94-3.14h0c0,1-.09,2.36-.16,3.58l-.22,3.46h-1l.56-8.08h1.33l1.38,3.91c.34,1,.62,1.88.82,2.72h0c.2-.81.49-1.7.85-2.72l1.44-3.91h1.33l.5,8.08h-1Z" transform="translate(-3.68 -8.35)"/><path d="M321.59,804.26l-.84,2.54h-1.07l2.74-8.08h1.26l2.76,8.08h-1.12l-.86-2.54Zm2.65-.82-.79-2.32c-.18-.53-.3-1-.42-1.48h0c-.12.48-.25,1-.41,1.46l-.79,2.34Z" transform="translate(-3.68 -8.35)"/><path d="M334.5,798.83a14.3,14.3,0,0,1,2.21-.17,4.65,4.65,0,0,1,3.28,1,3.71,3.71,0,0,1,1.14,2.9,4.25,4.25,0,0,1-1.17,3.14,4.94,4.94,0,0,1-3.57,1.16,16.84,16.84,0,0,1-1.89-.09Zm1,7.14a6.32,6.32,0,0,0,1,.06A3.11,3.11,0,0,0,340,802.6c0-1.9-1.07-3.11-3.28-3.11a6,6,0,0,0-1.22.1Z" transform="translate(-3.68 -8.35)"/><path d="M353.54,803h-3.15v2.92h3.51v.87h-4.55v-8.08h4.37v.87h-3.33v2.56h3.15Z" transform="translate(-3.68 -8.35)"/><path d="M372.57,798.72v8.08h-1v-8.08Z" transform="translate(-3.68 -8.35)"/><path d="M381.26,806.8v-8.08h1.14l2.59,4.09a23,23,0,0,1,1.45,2.62h0c-.09-1.08-.12-2.06-.12-3.32v-3.38h1v8.08h-1.06l-2.56-4.1a24.7,24.7,0,0,1-1.52-2.7h0c.06,1,.08,2,.08,3.34v3.45Z" transform="translate(-3.68 -8.35)"/><path d="M411.58,806.44a7.45,7.45,0,0,1-2.48.45,3.79,3.79,0,0,1-4.15-4.08,4.05,4.05,0,0,1,4.37-4.18,5,5,0,0,1,2,.38l-.25.85a4.21,4.21,0,0,0-1.79-.35,3,3,0,0,0-3.25,3.25,3,3,0,0,0,3.12,3.26,3.43,3.43,0,0,0,1.39-.21V803.4h-1.64v-.84h2.66Z" transform="translate(-3.68 -8.35)"/><path d="M424.23,803h-3.14v2.92h3.5v.87H420v-8.08h4.37v.87h-3.32v2.56h3.14Z" transform="translate(-3.68 -8.35)"/><path d="M432.81,798.83a10.66,10.66,0,0,1,2-.17,3.28,3.28,0,0,1,2.34.66,2,2,0,0,1,.64,1.53,2.13,2.13,0,0,1-1.53,2.07v0a2,2,0,0,1,1.19,1.63,13,13,0,0,0,.63,2.22H437a9.25,9.25,0,0,1-.54-1.93c-.24-1.11-.68-1.53-1.62-1.57h-1v3.5h-1Zm1,3.68h1.07c1.12,0,1.82-.61,1.82-1.54s-.75-1.5-1.85-1.51a4.18,4.18,0,0,0-1,.1Z" transform="translate(-3.68 -8.35)"/><path d="M452.94,803.25c-.06-1.13-.13-2.48-.12-3.49h0c-.28,1-.62,2-1,3.07l-1.43,3.92h-.79l-1.31-3.85c-.38-1.14-.71-2.18-.93-3.14h0c0,1-.08,2.36-.15,3.58l-.22,3.46h-1l.57-8.08h1.33l1.38,3.91c.33,1,.61,1.88.81,2.72h0c.2-.81.49-1.7.85-2.72l1.44-3.91h1.33l.51,8.08h-1Z" transform="translate(-3.68 -8.35)"/><path d="M463.83,804.26,463,806.8h-1.08l2.75-8.08h1.26l2.76,8.08h-1.12l-.86-2.54Zm2.65-.82-.79-2.32c-.18-.53-.3-1-.42-1.48h0c-.12.48-.26,1-.41,1.46l-.79,2.34Z" transform="translate(-3.68 -8.35)"/><path d="M476.73,806.8v-8.08h1.14l2.59,4.09a23,23,0,0,1,1.45,2.62h0c-.1-1.08-.12-2.06-.12-3.32v-3.38h1v8.08h-1.06l-2.56-4.1a23,23,0,0,1-1.51-2.7h0c.06,1,.08,2,.08,3.34v3.45Z" transform="translate(-3.68 -8.35)"/><path d="M493.21,806.8v-3.43l-2.56-4.65h1.19L493,801c.31.61.55,1.1.8,1.67h0c.22-.53.5-1.06.81-1.67l1.16-2.23H497l-2.71,4.64v3.44Z" transform="translate(-3.68 -8.35)"/><path class="cls-3" d="M223,361.6l15.31,11.1L254,361.37v11.81h2.92V356l-18.56,13.44L220,356.07v17.1h3Zm59.58-5.74a12.08,12.08,0,0,0-7.37,2.28,8.29,8.29,0,0,0-.16,13.35,12.39,12.39,0,0,0,15.52-.62c2.37-2,3.51-7,2-9.45A11.26,11.26,0,0,0,282.58,355.86Zm-88.16,0c-.57,0-1.14,0-1.7.08-3.86.52-7,2.35-8.49,6-1.76,4.24.17,8.25,4.16,10.34,5.56,2.92,10.42,2,15-2.36,1.91-1.83,2.47-7.12.33-9.78A11.1,11.1,0,0,0,194.42,355.9Zm111.52,13.71a16.17,16.17,0,0,0,1.63,1.92c2.91,2.48,6.41,2.71,9.91,2.16a14.35,14.35,0,0,0,5.15-2.14c1.87-1.15,1.74-4.7-.18-5.8a25.16,25.16,0,0,0-5.07-2.05c-2-.62-4.09-.95-6.1-1.55a1.72,1.72,0,0,1-1-1.27,2.24,2.24,0,0,1,.85-1.64c2.33-1.52,6.78-1,8.91.92a1.36,1.36,0,0,0,1.05.26,22.74,22.74,0,0,0,2.39-.93,12.82,12.82,0,0,0-2.78-2.35,13.49,13.49,0,0,0-11.09-.08,4.11,4.11,0,0,0-2.74,4c.06,1.89,1.29,2.86,2.86,3.38,1.75.57,3.59.86,5.36,1.38a40.06,40.06,0,0,1,5.13,1.82c1,.46.73,1.2.09,2.1-1.68,2.35-8.2,2.26-10,.2C308.89,368.31,307.73,369,305.94,369.61Zm-152.31-7.8,16.13,11.95V356.65h-3v11.5L151,356.44v16.75h2.64Zm86.66,20.79v4.24h-3.73v-4.32l-1.53.12v11.07l1.7-.1V388.3h3.62v5.32H242v-11Zm-59.79,6.78a3.24,3.24,0,0,1,0,.66c-.18,1.17-.24,2.45-1.86,2.57-1.41.11-2.28-.57-2.48-2.33a19.69,19.69,0,0,1,.06-4.73,2.43,2.43,0,0,1,1.42-1.68c.61-.18,1.44.37,2.17.6l1.94.62c-.79-2.06-1.82-2.68-3.69-2.64s-3.26.78-3.43,2.23a24.5,24.5,0,0,0,0,6.68c.14.9,1.49,1.86,2.5,2.33a3.47,3.47,0,0,0,4.11-.86c1.21-1.38,1.07-3.2.88-4.94h-3.67C178.23,389.76,179.86,388.58,180.5,389.38ZM203,393.59c1.14.34,1.8.06,2-1.15a1.3,1.3,0,0,1,.88-.88,9.56,9.56,0,0,1,3.34.13c.48.14.66,1.24,1,1.9H212c-.5-1.38-1-2.6-1.39-3.84-.72-2.16-1.38-4.35-2.14-6.5a1.21,1.21,0,0,0-.94-.66,1.48,1.48,0,0,0-1.13.66C205.21,386.65,204.14,390.09,203,393.59Zm54.48-11c0,.64,0,1.19,0,1.75,0,2.11.06,4.23-.05,6.33a2.14,2.14,0,0,1-.85,1.64,2.47,2.47,0,0,1-2.14-.21,3.44,3.44,0,0,1-.68-2.22c-.09-2.41,0-4.81,0-7.26h-1.67c0,2.89-.07,5.67,0,8.44.06,1.66,1.53,2.77,3.43,2.84s3.49-.87,3.55-2.25c.14-3,0-6,0-9.15Zm39,0v11h5.88l.11-.49c-1.1-1.33-3,0-4.21-.79v-3.88h2.38c1.43,0,1.43,0,1.39-1.24h-3.78v-3.31c4-.54,4-.54,4.06-1.27Zm-76.6,9.1-.43.25a4.11,4.11,0,0,0,.66,1.38,3.37,3.37,0,0,0,1.43.49,3.42,3.42,0,0,0,3.73-1.45,3.24,3.24,0,0,0-1.23-4,9.72,9.72,0,0,1-2.1-1.75,2.62,2.62,0,0,1-.51-2.14c.24-.47,1.36-.68,2.07-.63s1.24.54,1.39-.39c0-.24-.69-.62-1.09-.89a1.63,1.63,0,0,0-.59-.18,3.6,3.6,0,0,0-3.48,1.45,3,3,0,0,0,1,3.65,11.25,11.25,0,0,1,2.35,2.14c.4.64.2,1.66.27,2.51a16.15,16.15,0,0,1-2.29.13A3.45,3.45,0,0,1,219.89,391.72Zm-27.31-9.06h-1.75v10.87c3.52.56,4.77.34,5.36-1.08h-3.61Zm93.28,11v-9.73l2.81-.2c-.43-.54-.66-1.09-.92-1.1-1.85-.08-3.7-.06-5.55,0-.23,0-.43.4-.65.62.23.2.44.53.69.57a14.74,14.74,0,0,0,1.91,0v9.82Zm-19-10.23.28.34c.25,0,.5.06.75.07,2,.06,2,.06,2,2.11,0,2.21,0,4.43,0,6.64,0,1.09.38,1.41,1.38,1a1.76,1.76,0,0,0,.11-.47c0-2.37.08-4.74,0-7.1-.05-1.45.13-2.47,2-2.21.23,0,.54-.38.81-.59-.27-.21-.54-.59-.82-.6-1.85-.05-3.71-.07-5.56,0C267.45,382.59,267.16,383.11,266.87,383.39Zm-11.39-2.7c-.83-.42-1.23-.78-1.61-.76s-.58.51-.87.79c.33.23.63.62,1,.65S254.68,381.08,255.48,380.69Zm2,1.09,1.12-1.13c-.33-.25-.64-.69-1-.71a1.17,1.17,0,0,0-.9.68C256.63,380.86,257.08,381.24,257.46,381.78Z" transform="translate(-3.68 -8.35)"/><path d="M223,361.6v11.57h-3v-17.1l18.38,13.4L256.91,356v17.15H254V361.37L238.31,372.7Z" transform="translate(-3.68 -8.35)"/><path d="M282.58,355.86a11.26,11.26,0,0,1,10,5.56c1.54,2.47.4,7.45-2,9.45a12.39,12.39,0,0,1-15.52.62,8.29,8.29,0,0,1,.16-13.35A12.08,12.08,0,0,1,282.58,355.86Zm-.09,2.51a8.9,8.9,0,0,0-5.68,2c-1.85,1.49-2.78,5.07-1.75,6.79a8.16,8.16,0,0,0,6.71,4.22c4.09.32,8.58-2.34,8.34-6.74C289.91,361.07,286.68,358.37,282.49,358.37Z" transform="translate(-3.68 -8.35)"/><path d="M194.42,355.9a11.1,11.1,0,0,1,9.29,4.24c2.14,2.66,1.58,7.95-.33,9.78-4.57,4.33-9.43,5.28-15,2.36-4-2.09-5.92-6.1-4.16-10.34,1.5-3.61,4.63-5.44,8.49-6C193.28,355.91,193.85,355.93,194.42,355.9Zm-.29,2.47a8.39,8.39,0,0,0-5.65,2.4,6.14,6.14,0,0,0-.13,8.15c2.68,2.83,7.77,3.37,11.55.66,1.86-1.32,3-5.11,2-6.89A8.43,8.43,0,0,0,194.13,358.37Z" transform="translate(-3.68 -8.35)"/><path d="M305.94,369.61c1.79-.58,2.95-1.3,4.38.36,1.77,2.06,8.29,2.15,10-.2.64-.9.89-1.64-.09-2.1a40.06,40.06,0,0,0-5.13-1.82c-1.77-.52-3.61-.81-5.36-1.38-1.57-.52-2.8-1.49-2.86-3.38a4.11,4.11,0,0,1,2.74-4,13.49,13.49,0,0,1,11.09.08,12.82,12.82,0,0,1,2.78,2.35,22.74,22.74,0,0,1-2.39.93,1.36,1.36,0,0,1-1.05-.26c-2.13-1.9-6.58-2.44-8.91-.92a2.24,2.24,0,0,0-.85,1.64,1.72,1.72,0,0,0,1,1.27c2,.6,4.1.93,6.1,1.55a25.16,25.16,0,0,1,5.07,2.05c1.92,1.1,2.05,4.65.18,5.8a14.35,14.35,0,0,1-5.15,2.14c-3.5.55-7,.32-9.91-2.16A16.17,16.17,0,0,1,305.94,369.61Z" transform="translate(-3.68 -8.35)"/><path d="M153.63,361.81v11.38H151V356.44l15.8,11.71v-11.5h3v17.11Z" transform="translate(-3.68 -8.35)"/><path d="M240.29,382.6H242v11h-1.64V388.3h-3.62v5.31l-1.7.1V382.64l1.53-.12v4.32h3.73Z" transform="translate(-3.68 -8.35)"/><path d="M180.5,389.38c-.64-.8-2.27.38-2-1.49h3.67c.19,1.74.33,3.56-.88,4.94a3.47,3.47,0,0,1-4.11.86c-1-.47-2.36-1.43-2.5-2.33a24.5,24.5,0,0,1,0-6.68c.17-1.45,1.67-2.2,3.43-2.23s2.9.58,3.69,2.64l-1.94-.62c-.73-.23-1.56-.78-2.17-.6a2.43,2.43,0,0,0-1.42,1.68,19.69,19.69,0,0,0-.06,4.73c.2,1.76,1.07,2.44,2.48,2.33,1.62-.12,1.68-1.4,1.86-2.57A3.24,3.24,0,0,0,180.5,389.38Z" transform="translate(-3.68 -8.35)"/><path d="M203,393.59c1.12-3.5,2.19-6.94,3.35-10.34a1.48,1.48,0,0,1,1.13-.66,1.21,1.21,0,0,1,.94.66c.76,2.15,1.42,4.34,2.14,6.5.42,1.24.89,2.46,1.39,3.84h-1.74c-.32-.66-.5-1.76-1-1.9a9.56,9.56,0,0,0-3.34-.13,1.3,1.3,0,0,0-.88.88C204.82,393.65,204.16,393.93,203,393.59Zm4.66-8.7-.62-.06-1.15,5.35h2.94Z" transform="translate(-3.68 -8.35)"/><path d="M257.5,382.63l1.63-.09c0,3.11.1,6.13,0,9.15-.06,1.38-1.77,2.32-3.55,2.25s-3.37-1.18-3.43-2.84c-.1-2.77,0-5.55,0-8.44h1.67c0,2.45-.06,4.85,0,7.26a3.44,3.44,0,0,0,.68,2.22,2.47,2.47,0,0,0,2.14.21,2.14,2.14,0,0,0,.85-1.64c.11-2.1.05-4.22.05-6.33C257.51,383.82,257.5,383.27,257.5,382.63Z" transform="translate(-3.68 -8.35)"/><path d="M296.49,382.62h5.83c-.05.73-.05.73-4.06,1.27v3.31H302c0,1.24,0,1.24-1.39,1.24h-2.38v3.88c1.26.78,3.11-.54,4.21.79l-.11.49h-5.88Z" transform="translate(-3.68 -8.35)"/><path d="M219.89,391.72a3.45,3.45,0,0,0,1.21.55,16.15,16.15,0,0,0,2.29-.13c-.07-.85.13-1.87-.27-2.51a11.25,11.25,0,0,0-2.35-2.14,3,3,0,0,1-1-3.65,3.6,3.6,0,0,1,3.48-1.45,1.63,1.63,0,0,1,.59.18c.4.27,1.12.65,1.09.89-.15.93-.79.43-1.39.39s-1.83.16-2.07.63a2.62,2.62,0,0,0,.51,2.14,9.72,9.72,0,0,0,2.1,1.75,3.24,3.24,0,0,1,1.23,4,3.42,3.42,0,0,1-3.73,1.45,3.37,3.37,0,0,1-1.43-.49,4.11,4.11,0,0,1-.66-1.38Z" transform="translate(-3.68 -8.35)"/><path d="M192.58,382.66v9.79h3.61c-.59,1.42-1.84,1.64-5.36,1.08V382.66Z" transform="translate(-3.68 -8.35)"/><path d="M285.86,393.62h-1.71V383.8a14.74,14.74,0,0,1-1.91,0c-.25,0-.46-.37-.69-.57.22-.22.42-.62.65-.62,1.85-.05,3.7-.07,5.55,0,.26,0,.49.56.92,1.1l-2.81.2Z" transform="translate(-3.68 -8.35)"/><path d="M266.87,383.39c.29-.28.58-.8.88-.81,1.85-.08,3.71-.06,5.56,0,.28,0,.55.39.82.6-.27.21-.58.63-.81.59-1.83-.26-2,.76-2,2.21.08,2.36,0,4.73,0,7.1a1.76,1.76,0,0,1-.11.47c-1,.42-1.39.1-1.38-1,0-2.21,0-4.43,0-6.64,0-2.05,0-2.05-2-2.11-.25,0-.5,0-.75-.07Z" transform="translate(-3.68 -8.35)"/><path d="M255.48,380.69c-.8.39-1.17.72-1.5.68s-.65-.42-1-.65c.29-.28.57-.77.87-.79S254.65,380.27,255.48,380.69Z" transform="translate(-3.68 -8.35)"/><path d="M257.46,381.78c-.38-.54-.83-.92-.76-1.16a1.17,1.17,0,0,1,.9-.68c.34,0,.65.46,1,.71Z" transform="translate(-3.68 -8.35)"/><path class="cls-3" d="M282.49,358.37c4.19,0,7.42,2.7,7.62,6.25.24,4.4-4.25,7.06-8.34,6.74a8.16,8.16,0,0,1-6.71-4.22c-1-1.72-.1-5.3,1.75-6.79A8.9,8.9,0,0,1,282.49,358.37Z" transform="translate(-3.68 -8.35)"/><path class="cls-3" d="M194.13,358.37a8.43,8.43,0,0,1,7.75,4.32c1.05,1.78-.12,5.57-2,6.89-3.78,2.71-8.87,2.17-11.55-.66a6.14,6.14,0,0,1,.13-8.15A8.39,8.39,0,0,1,194.13,358.37Z" transform="translate(-3.68 -8.35)"/><path class="cls-3" d="M207.68,384.89l1.17,5.29h-2.94l1.15-5.35Z" transform="translate(-3.68 -8.35)"/></svg>