<svg id="Layer_1" data-name="Layer 1" xmlns="http://www.w3.org/2000/svg" viewBox="0 0 809.04 803.02"><defs><style>.cls-1{fill:#85c5ae;}.cls-2{fill:#2a3220;}</style></defs><title>nomos_metro_gangreserve</title><circle class="cls-1" cx="404.51" cy="94.58" r="13.89"/><circle class="cls-1" cx="94.4" cy="404.69" r="13.89"/><circle class="cls-1" cx="714.62" cy="404.69" r="13.89"/><circle class="cls-1" cx="404.51" cy="94.58" r="13.89"/><circle class="cls-2" cx="363.11" cy="10.86" r="4.5"/><circle class="cls-2" cx="322.17" cy="17.34" r="4.5"/><circle class="cls-2" cx="282.14" cy="28.07" r="4.5"/><circle class="cls-2" cx="243.44" cy="42.92" r="4.5"/><circle class="cls-2" cx="171.74" cy="84.32" r="4.5"/><circle class="cls-2" cx="139.53" cy="110.4" r="4.5"/><circle class="cls-2" cx="110.22" cy="139.71" r="4.5"/><circle class="cls-2" cx="84.14" cy="171.92" r="4.5"/><circle class="cls-2" cx="42.74" cy="243.62" r="4.5"/><circle class="cls-2" cx="27.89" cy="282.32" r="4.5"/><circle class="cls-2" cx="17.16" cy="322.35" r="4.5"/><circle class="cls-2" cx="10.68" cy="363.29" r="4.5"/><circle class="cls-2" cx="10.68" cy="446.08" r="4.5"/><circle class="cls-2" cx="17.16" cy="487.02" r="4.5"/><circle class="cls-2" cx="27.89" cy="527.06" r="4.5"/><circle class="cls-2" cx="42.74" cy="565.76" r="4.5"/><circle class="cls-2" cx="84.14" cy="637.45" r="4.5"/><circle class="cls-2" cx="110.22" cy="669.66" r="4.5"/><circle class="cls-2" cx="139.53" cy="698.97" r="4.5"/><circle class="cls-2" cx="171.74" cy="725.06" r="4.5"/><circle class="cls-2" cx="243.44" cy="766.45" r="4.5"/><circle class="cls-2" cx="282.14" cy="781.31" r="4.5"/><circle class="cls-2" cx="322.17" cy="792.03" r="4.5"/><circle class="cls-2" cx="363.11" cy="798.52" r="4.5"/><circle class="cls-2" cx="445.9" cy="798.52" r="4.5"/><circle class="cls-2" cx="486.84" cy="792.03" r="4.5"/><circle class="cls-2" cx="526.88" cy="781.31" r="4.5"/><circle class="cls-2" cx="565.58" cy="766.45" r="4.5"/><circle class="cls-2" cx="637.27" cy="725.06" r="4.5"/><circle class="cls-2" cx="669.48" cy="698.97" r="4.5"/><circle class="cls-2" cx="698.79" cy="669.66" r="4.5"/><circle class="cls-2" cx="724.88" cy="637.45" r="4.5"/><circle class="cls-2" cx="766.27" cy="565.76" r="4.5"/><circle class="cls-2" cx="781.13" cy="527.06" r="4.5"/><circle class="cls-2" cx="791.85" cy="487.02" r="4.5"/><circle class="cls-2" cx="798.34" cy="446.08" r="4.5"/><circle class="cls-2" cx="798.34" cy="363.29" r="4.5"/><circle class="cls-2" cx="791.85" cy="322.35" r="4.5"/><circle class="cls-2" cx="781.13" cy="282.32" r="4.5"/><circle class="cls-2" cx="766.27" cy="243.62" r="4.5"/><circle class="cls-2" cx="724.88" cy="171.92" r="4.5"/><circle class="cls-2" cx="698.79" cy="139.71" r="4.5"/><circle class="cls-2" cx="669.48" cy="110.4" r="4.5"/><circle class="cls-2" cx="637.27" cy="84.32" r="4.5"/><circle class="cls-2" cx="565.58" cy="42.92" r="4.5"/><circle class="cls-2" cx="526.88" cy="28.07" r="4.5"/><circle class="cls-2" cx="486.84" cy="17.34" r="4.5"/><circle class="cls-2" cx="445.9" cy="10.86" r="4.5"/><circle class="cls-2" cx="243.11" cy="125.13" r="8.57"/><circle class="cls-2" cx="124.95" cy="243.29" r="8.57"/><circle class="cls-2" cx="124.95" cy="566.09" r="8.57"/><circle class="cls-2" cx="243.11" cy="684.24" r="8.57"/><circle class="cls-2" cx="565.91" cy="684.24" r="8.57"/><circle class="cls-2" cx="684.06" cy="566.09" r="8.57"/><circle class="cls-2" cx="684.06" cy="243.29" r="8.57"/><circle class="cls-2" cx="565.91" cy="125.13" r="8.57"/><path d="M201.46,56.44a1.09,1.09,0,0,1,.14.85,1.41,1.41,0,0,1-.73.78l-4.6,2.65,1.53,4.15a11.5,11.5,0,0,1,1.95-1.46,6.47,6.47,0,0,1,2.26-.84,5,5,0,0,1,2.05.09,4.77,4.77,0,0,1,1.74.91,6,6,0,0,1,1.33,1.61,6.27,6.27,0,0,1,.83,2.39,5.75,5.75,0,0,1-.19,2.31,5.84,5.84,0,0,1-1.1,2,7,7,0,0,1-1.92,1.6,6.76,6.76,0,0,1-1.35.61,8.3,8.3,0,0,1-1.34.3,7.58,7.58,0,0,1-2.42-.09l.11-1.2a.67.67,0,0,1,.36-.58,1,1,0,0,1,.57-.12h.83a5.58,5.58,0,0,0,1.08-.15,4.47,4.47,0,0,0,1.29-.52,4.52,4.52,0,0,0,1.23-1,3.37,3.37,0,0,0,.64-1.3,3.46,3.46,0,0,0,0-1.47,4.58,4.58,0,0,0-.58-1.53,4.12,4.12,0,0,0-.91-1.12,3.11,3.11,0,0,0-1.14-.59,3.17,3.17,0,0,0-1.34,0,4.9,4.9,0,0,0-1.51.6,9.34,9.34,0,0,0-2.16,1.77l-1.44.35-2.85-7.71L201,55.59Z" transform="translate(-0.49 -0.12)"/><path d="M213.52,49.48a1.13,1.13,0,0,1,.14.85,1.43,1.43,0,0,1-.74.78l-4.59,2.65,1.52,4.15a11.17,11.17,0,0,1,2-1.46,6.4,6.4,0,0,1,2.26-.84,5,5,0,0,1,2.05.09,4.73,4.73,0,0,1,1.73.91,5.87,5.87,0,0,1,1.34,1.61,6.25,6.25,0,0,1,.82,2.39,5.51,5.51,0,0,1-.18,2.3,5.66,5.66,0,0,1-1.11,2,6.81,6.81,0,0,1-1.91,1.6,7.31,7.31,0,0,1-1.35.61,8.54,8.54,0,0,1-1.34.3,7.62,7.62,0,0,1-2.43-.09l.12-1.2a.68.68,0,0,1,.35-.58,1,1,0,0,1,.57-.12q.36,0,.84,0a5.8,5.8,0,0,0,1.08-.15,4.42,4.42,0,0,0,1.28-.52,4.24,4.24,0,0,0,1.23-1,3.39,3.39,0,0,0,.65-1.3,3.63,3.63,0,0,0,0-1.47,4.8,4.8,0,0,0-.58-1.53,4.15,4.15,0,0,0-.92-1.12,3,3,0,0,0-1.13-.59,3.22,3.22,0,0,0-1.35,0,5,5,0,0,0-1.51.6,9.31,9.31,0,0,0-2.15,1.77l-1.45.35-2.84-7.71L213,48.63Z" transform="translate(-0.49 -0.12)"/><path d="M54.53,204.83a1.09,1.09,0,0,1,.55.67,1.39,1.39,0,0,1-.25,1l-2.65,4.59,3.4,2.84a11.71,11.71,0,0,1,1-2.25,6.52,6.52,0,0,1,1.54-1.85,4.9,4.9,0,0,1,1.82-1,4.57,4.57,0,0,1,2-.08,6.12,6.12,0,0,1,2,.72,6.37,6.37,0,0,1,1.92,1.66,5.81,5.81,0,0,1,1,2.09,6,6,0,0,1,.06,2.32,7.07,7.07,0,0,1-.86,2.34,7.68,7.68,0,0,1-.87,1.2,7.33,7.33,0,0,1-1,.93,6.27,6.27,0,0,1-1.08.68,6.72,6.72,0,0,1-1.06.45l-.51-1.09a.71.71,0,0,1,0-.68,1.07,1.07,0,0,1,.44-.39q.32-.16.72-.42a5.83,5.83,0,0,0,.87-.67,4.47,4.47,0,0,0,.84-1.09,4.08,4.08,0,0,0,.55-1.51,3.51,3.51,0,0,0-.09-1.45,3.58,3.58,0,0,0-.71-1.29,4.92,4.92,0,0,0-1.27-1,4.33,4.33,0,0,0-1.35-.51,3.06,3.06,0,0,0-1.28.06,3.11,3.11,0,0,0-1.17.65,5,5,0,0,0-1,1.28,9.08,9.08,0,0,0-1,2.6l-1.08,1-6.32-5.25,4.11-7.12Z" transform="translate(-0.49 -0.12)"/><path d="M68.79,195.37a13.49,13.49,0,0,1,3.15,2.38,8.28,8.28,0,0,1,1.71,2.52,5.37,5.37,0,0,1,.4,2.53,6.07,6.07,0,0,1-2.46,4.27,5.45,5.45,0,0,1-2.39.91,8.1,8.1,0,0,1-3-.22,16.21,16.21,0,0,1-6.78-3.91,8.28,8.28,0,0,1-1.71-2.52,5.39,5.39,0,0,1-.4-2.53,5.69,5.69,0,0,1,.77-2.39,5.78,5.78,0,0,1,1.69-1.88,5.33,5.33,0,0,1,2.39-.91,8.08,8.08,0,0,1,3,.21A14.31,14.31,0,0,1,68.79,195.37Zm-1.18,2a14.24,14.24,0,0,0-3-1.36,6.76,6.76,0,0,0-2.27-.31,3.1,3.1,0,0,0-1.61.51,3.25,3.25,0,0,0-1,1.11,3.41,3.41,0,0,0-.44,1.45,3.23,3.23,0,0,0,.37,1.65,6.35,6.35,0,0,0,1.41,1.8,16.95,16.95,0,0,0,5.66,3.27,6.38,6.38,0,0,0,2.27.32,3.14,3.14,0,0,0,2.64-1.62,3.15,3.15,0,0,0,.44-1.45,3.22,3.22,0,0,0-.36-1.65,6.48,6.48,0,0,0-1.4-1.8A14,14,0,0,0,67.61,197.42Z" transform="translate(-0.49 -0.12)"/><path d="M11.46,408v-2.53h1.32a.49.49,0,0,1,.34.12.5.5,0,0,1,.14.37v2h4.46v2H13.26v7.58a.72.72,0,0,1-.14.44.62.62,0,0,1-.38.22l-1.16.23L.49,410.13V408Zm-6.84,2-.71,0-.79-.09L11.46,416v-6Z" transform="translate(-0.49 -0.12)"/><path d="M1.49,393a1.11,1.11,0,0,1,.8.31,1.41,1.41,0,0,1,.31,1v5.3l4.36.76A11.53,11.53,0,0,1,6.67,398a6.65,6.65,0,0,1,.4-2.37,4.86,4.86,0,0,1,1.11-1.73,4.61,4.61,0,0,1,1.65-1.05,5.83,5.83,0,0,1,2.06-.36,6.28,6.28,0,0,1,2.49.48,5.84,5.84,0,0,1,1.9,1.32,5.72,5.72,0,0,1,1.21,2,7.26,7.26,0,0,1,.28,3.93,7.54,7.54,0,0,1-.41,1.32,7.15,7.15,0,0,1-.6,1.13,7.61,7.61,0,0,1-.69.92l-1-.7a.71.71,0,0,1-.32-.6,1,1,0,0,1,.19-.55c.12-.2.26-.44.41-.73a5.92,5.92,0,0,0,.41-1,4.38,4.38,0,0,0,.19-1.38,4.19,4.19,0,0,0-.28-1.58,3.39,3.39,0,0,0-.81-1.21,3.5,3.5,0,0,0-1.25-.76,4.91,4.91,0,0,0-1.62-.26,4,4,0,0,0-1.42.23,3,3,0,0,0-1.08.69,3,3,0,0,0-.69,1.15,5,5,0,0,0-.24,1.61A9.39,9.39,0,0,0,9,401.17L8.6,402.6.5,401.21V393Z" transform="translate(-0.49 -0.12)"/><path d="M58.3,601.3l1.26,2.19-1.14.66a.47.47,0,0,1-.36.06.43.43,0,0,1-.3-.24l-1-1.77-3.87,2.23-1-1.72,3.86-2.24L52,593.91a.62.62,0,0,1-.09-.45.58.58,0,0,1,.21-.38l.89-.78L66.73,594l1.06,1.84Zm4.92-5.15.63-.33c.23-.11.47-.22.73-.32l-10.29-1.13,3,5.2Z" transform="translate(-0.49 -0.12)"/><path d="M68.55,614.35a14.18,14.18,0,0,1-3.63,1.53,7.92,7.92,0,0,1-3,.22,5.27,5.27,0,0,1-2.4-.92A6,6,0,0,1,57,610.92a5.37,5.37,0,0,1,.4-2.53,8.28,8.28,0,0,1,1.71-2.52,14.21,14.21,0,0,1,3.15-2.37A14,14,0,0,1,65.91,602a8.11,8.11,0,0,1,3-.22,5.45,5.45,0,0,1,2.39.91,6,6,0,0,1,2.46,4.27,5.26,5.26,0,0,1-.4,2.53A8.1,8.1,0,0,1,71.69,612,13.64,13.64,0,0,1,68.55,614.35Zm-1.19-2.05A13.59,13.59,0,0,0,70,610.39a6.93,6.93,0,0,0,1.41-1.81,3.22,3.22,0,0,0,.36-1.65,3.15,3.15,0,0,0-.44-1.45,3.14,3.14,0,0,0-2.65-1.62,6.86,6.86,0,0,0-2.27.32,17.21,17.21,0,0,0-5.66,3.27,6.44,6.44,0,0,0-1.4,1.8A3.13,3.13,0,0,0,59,610.9a3.41,3.41,0,0,0,.44,1.45,3.25,3.25,0,0,0,1,1.11,3.3,3.3,0,0,0,1.61.51,6.57,6.57,0,0,0,2.27-.31A13.48,13.48,0,0,0,67.36,612.3Z" transform="translate(-0.49 -0.12)"/><path d="M205.48,736.81a6.41,6.41,0,0,1,1.61,1.3,4.72,4.72,0,0,1,.93,1.57,4.23,4.23,0,0,1,.2,1.73,4.32,4.32,0,0,1-.58,1.74,4.66,4.66,0,0,1-.91,1.17,3.52,3.52,0,0,1-1.07.68,3.47,3.47,0,0,1-1.21.23,5.82,5.82,0,0,1-1.34-.14,4.75,4.75,0,0,1,1.43,2.54,4.08,4.08,0,0,1-.58,2.67,5.06,5.06,0,0,1-1.48,1.65,4.94,4.94,0,0,1-1.88.79,5.52,5.52,0,0,1-2.1,0,6.67,6.67,0,0,1-2.11-.81,7.13,7.13,0,0,1-1.85-1.45,5.07,5.07,0,0,1-1-1.64,4.89,4.89,0,0,1-.26-1.79,9.5,9.5,0,0,1,.26-1.94l1.06.12a1.28,1.28,0,0,1,.69.29.73.73,0,0,1,.25.63c0,.26,0,.56,0,.9a3.66,3.66,0,0,0,.12,1.07,3.28,3.28,0,0,0,.52,1.11,3.67,3.67,0,0,0,1.18,1,3.81,3.81,0,0,0,1.47.51,3.24,3.24,0,0,0,1.33-.09,3.11,3.11,0,0,0,1.07-.55,3,3,0,0,0,.74-.86,4.2,4.2,0,0,0,.48-1.16,2.14,2.14,0,0,0-.08-1.17,3.28,3.28,0,0,0-.83-1.21,8.65,8.65,0,0,0-1.78-1.29l.83-1.44a6.87,6.87,0,0,0,1.73.73,3.38,3.38,0,0,0,1.39.09,2.12,2.12,0,0,0,1.06-.46,3.17,3.17,0,0,0,.77-.92,3.26,3.26,0,0,0,.44-1.2,2.38,2.38,0,0,0-.09-1.07,2.47,2.47,0,0,0-.55-.93,3.7,3.7,0,0,0-2-1.17,3.28,3.28,0,0,0-1.08,0,2.89,2.89,0,0,0-1,.33,3,3,0,0,0-.85.65.87.87,0,0,1-1.31,0l-.93-.78a6.1,6.1,0,0,1,1.62-1.49,5,5,0,0,1,1.84-.71,5.08,5.08,0,0,1,1.94,0A6.63,6.63,0,0,1,205.48,736.81Z" transform="translate(-0.49 -0.12)"/><path d="M221,747.11a1.11,1.11,0,0,1-.67.54,1.37,1.37,0,0,1-1-.24l-4.6-2.65-2.83,3.39a11.34,11.34,0,0,1,2.24,1,6.43,6.43,0,0,1,1.86,1.54,5,5,0,0,1,1,1.82,4.78,4.78,0,0,1,.08,2,6.39,6.39,0,0,1-2.38,3.87,5.81,5.81,0,0,1-2.09,1,5.64,5.64,0,0,1-2.32.06,6.85,6.85,0,0,1-2.34-.86,7,7,0,0,1-1.2-.86,8,8,0,0,1-.93-1,7.14,7.14,0,0,1-.68-1.08,6.81,6.81,0,0,1-.45-1.07l1.09-.5a.69.69,0,0,1,.68,0,1,1,0,0,1,.39.44q.17.3.42.72a6.4,6.4,0,0,0,.66.86,4.82,4.82,0,0,0,1.1.85,4.47,4.47,0,0,0,1.51.55,3.35,3.35,0,0,0,1.45-.1,3.55,3.55,0,0,0,1.29-.7,5.09,5.09,0,0,0,1-1.27,4.06,4.06,0,0,0,.5-1.35,2.9,2.9,0,0,0-.05-1.28,3,3,0,0,0-.66-1.18,5,5,0,0,0-1.27-1,9.33,9.33,0,0,0-2.61-1l-1-1.08,5.25-6.31,7.12,4.11Z" transform="translate(-0.49 -0.12)"/><path d="M592.79,743.66a6.48,6.48,0,0,1,2-.75,5,5,0,0,1,1.89,0,4.52,4.52,0,0,1,1.71.76,5.18,5.18,0,0,1,1.35,1.56,5.62,5.62,0,0,1,.65,1.68,6.74,6.74,0,0,1,.11,1.74,10.74,10.74,0,0,1-.25,1.82c-.13.63-.29,1.26-.46,1.92l-1.58,6.12a9.59,9.59,0,0,1,.75-.68,7.24,7.24,0,0,1,.79-.56l4.8-2.77a.84.84,0,0,1,.62-.11.78.78,0,0,1,.47.39l.69,1.19-10,5.77-.39-.67a1.43,1.43,0,0,1-.16-.48,1.18,1.18,0,0,1,0-.56l2-7.49c.16-.63.29-1.22.4-1.78a10,10,0,0,0,.19-1.57,6.53,6.53,0,0,0-.12-1.42,4.59,4.59,0,0,0-.52-1.32,3.33,3.33,0,0,0-.84-1,2.5,2.5,0,0,0-1-.49,2.55,2.55,0,0,0-1.1,0,3.89,3.89,0,0,0-1.12.44,3.38,3.38,0,0,0-.91.74,3,3,0,0,0-.56.92,3.27,3.27,0,0,0-.22,1,3.2,3.2,0,0,0,.15,1.06,1,1,0,0,1-.06.72,1.08,1.08,0,0,1-.59.43l-1.15.41a6.67,6.67,0,0,1-.47-2.15,5.23,5.23,0,0,1,.3-1.94,5.07,5.07,0,0,1,1-1.65A6.48,6.48,0,0,1,592.79,743.66Z" transform="translate(-0.49 -0.12)"/><path d="M609.52,735.36a1.08,1.08,0,0,1,.14.85,1.44,1.44,0,0,1-.73.78l-4.6,2.65,1.53,4.15a11.12,11.12,0,0,1,1.95-1.46,6.47,6.47,0,0,1,2.26-.84,5,5,0,0,1,2,.09,4.85,4.85,0,0,1,1.74.91,6,6,0,0,1,1.33,1.61,6.27,6.27,0,0,1,.83,2.39,5.7,5.7,0,0,1-.19,2.3,5.88,5.88,0,0,1-1.1,2,7,7,0,0,1-1.92,1.6,6.72,6.72,0,0,1-1.35.6,7.4,7.4,0,0,1-1.34.31,7.54,7.54,0,0,1-2.42-.09l.11-1.2a.68.68,0,0,1,.35-.58,1,1,0,0,1,.58-.12h.83a5.8,5.8,0,0,0,1.08-.15,4.25,4.25,0,0,0,1.29-.53,4.33,4.33,0,0,0,1.23-1,3.37,3.37,0,0,0,.64-1.3,3.63,3.63,0,0,0,0-1.47,4.58,4.58,0,0,0-.58-1.53,4.12,4.12,0,0,0-.91-1.12,3.11,3.11,0,0,0-1.14-.59,3.17,3.17,0,0,0-1.34,0,4.71,4.71,0,0,0-1.52.6A8.82,8.82,0,0,0,606.2,746l-1.45.35-2.84-7.71,7.12-4.11Z" transform="translate(-0.49 -0.12)"/><path d="M737,604.39a5.92,5.92,0,0,1,1.32-1.62,4.63,4.63,0,0,1,1.64-.95,4.26,4.26,0,0,1,1.85-.19,5,5,0,0,1,2,.66,5.49,5.49,0,0,1,1.4,1.14,6.84,6.84,0,0,1,1,1.45,10.78,10.78,0,0,1,.69,1.7c.2.61.38,1.24.56,1.89l1.69,6.1c.09-.33.19-.66.31-1a6.37,6.37,0,0,1,.41-.87l2.77-4.8a.78.78,0,0,1,.48-.4.8.8,0,0,1,.6.09l1.19.69-5.77,10-.67-.39a1.33,1.33,0,0,1-.63-.84l-2-7.48c-.17-.63-.35-1.21-.53-1.74a9.18,9.18,0,0,0-.63-1.45,5.92,5.92,0,0,0-.81-1.17,4.64,4.64,0,0,0-1.11-.88,3.38,3.38,0,0,0-1.22-.45,2.6,2.6,0,0,0-1.12.09,2.45,2.45,0,0,0-1,.55,4.13,4.13,0,0,0-.75.93,3.61,3.61,0,0,0-.42,1.11,3.5,3.5,0,0,0,0,1.07,2.89,2.89,0,0,0,.33,1,3,3,0,0,0,.65.85,1,1,0,0,1,.31.65,1.12,1.12,0,0,1-.3.67l-.78.93a6.47,6.47,0,0,1-1.49-1.63,5,5,0,0,1-.66-3.77A6.39,6.39,0,0,1,737,604.39Z" transform="translate(-0.49 -0.12)"/><path d="M754.6,591.43a13.78,13.78,0,0,1,3.15,2.38,8.28,8.28,0,0,1,1.71,2.52,5.41,5.41,0,0,1,.4,2.54,5.86,5.86,0,0,1-.78,2.39,5.73,5.73,0,0,1-1.68,1.87A5.33,5.33,0,0,1,755,604a7.9,7.9,0,0,1-3-.22,14,14,0,0,1-3.63-1.54,14.21,14.21,0,0,1-3.15-2.37,8.28,8.28,0,0,1-1.71-2.52,5.37,5.37,0,0,1-.4-2.53,6,6,0,0,1,2.46-4.26,5.34,5.34,0,0,1,2.39-.92,8.1,8.1,0,0,1,3,.22A13.9,13.9,0,0,1,754.6,591.43Zm-1.18,2.05a13.65,13.65,0,0,0-3-1.35,6.83,6.83,0,0,0-2.27-.32,3.3,3.3,0,0,0-1.61.51,3.34,3.34,0,0,0-1.48,2.56,3.13,3.13,0,0,0,.37,1.65,6.52,6.52,0,0,0,1.41,1.81,13.91,13.91,0,0,0,2.67,1.9,14.05,14.05,0,0,0,3,1.37,6.57,6.57,0,0,0,2.27.31,3.13,3.13,0,0,0,1.61-.51,3.22,3.22,0,0,0,1-1.11,3.28,3.28,0,0,0,.44-1.44,3.18,3.18,0,0,0-.36-1.65,6.51,6.51,0,0,0-1.4-1.81A14,14,0,0,0,753.42,593.48Z" transform="translate(-0.49 -0.12)"/><path d="M794,393.85v3.66h11.43l1.09,0-2.53-3a.87.87,0,0,1-.17-.33.81.81,0,0,1,0-.31.82.82,0,0,1,.1-.26.57.57,0,0,1,.16-.18l1-.71,4.44,5.15v1.85H794v3.35h-1.74v-9.29Z" transform="translate(-0.49 -0.12)"/><path d="M808.51,416.63a1.11,1.11,0,0,1-.8-.31,1.41,1.41,0,0,1-.31-1V410l-4.36-.76a11.46,11.46,0,0,1,.29,2.43,6.69,6.69,0,0,1-.4,2.37,4.86,4.86,0,0,1-1.11,1.73,4.75,4.75,0,0,1-1.65,1.05,5.83,5.83,0,0,1-2.06.36,6.28,6.28,0,0,1-2.49-.49,5.66,5.66,0,0,1-1.9-1.31,5.82,5.82,0,0,1-1.21-2,7.06,7.06,0,0,1-.43-2.46,6.91,6.91,0,0,1,.15-1.47,7.54,7.54,0,0,1,.41-1.32,7.15,7.15,0,0,1,.6-1.13,7.61,7.61,0,0,1,.69-.92l1,.7a.71.71,0,0,1,.32.6,1,1,0,0,1-.19.55c-.12.2-.26.44-.41.72a6,6,0,0,0-.41,1,4.38,4.38,0,0,0-.19,1.38,4.19,4.19,0,0,0,.28,1.58,3.38,3.38,0,0,0,2.06,2,4.91,4.91,0,0,0,1.62.26,4.19,4.19,0,0,0,1.42-.23,3,3,0,0,0,1.08-.69,3.07,3.07,0,0,0,.69-1.15,5,5,0,0,0,.24-1.61,9.39,9.39,0,0,0-.45-2.75l.42-1.43,8.1,1.39v8.23Z" transform="translate(-0.49 -0.12)"/><path d="M736.38,200.85l1.83,3.17,9.91-5.72c.3-.18.62-.35,1-.52l-3.67-1.3a.72.72,0,0,1-.31-.2.66.66,0,0,1-.16-.26,1,1,0,0,1-.05-.28.85.85,0,0,1,.05-.24l.51-1.11,6.42,2.24.92,1.6L739.35,206l1.68,2.9-1.51.87-4.64-8Z" transform="translate(-0.49 -0.12)"/><path d="M754.43,218.35a14,14,0,0,1-3.63,1.53,8.11,8.11,0,0,1-3,.22,5.27,5.27,0,0,1-2.4-.92,5.86,5.86,0,0,1-1.69-1.87,5.69,5.69,0,0,1-.77-2.39,5.37,5.37,0,0,1,.4-2.53,8.15,8.15,0,0,1,1.72-2.52,13.91,13.91,0,0,1,3.14-2.37,14.25,14.25,0,0,1,3.63-1.54,7.91,7.91,0,0,1,3-.22,5.29,5.29,0,0,1,2.39.91,6,6,0,0,1,2.46,4.26,5.28,5.28,0,0,1-.4,2.54,7.94,7.94,0,0,1-1.71,2.52A13.92,13.92,0,0,1,754.43,218.35Zm-1.18-2a13.8,13.8,0,0,0,2.66-1.91,6.93,6.93,0,0,0,1.41-1.81,3.35,3.35,0,0,0,.37-1.66,3.41,3.41,0,0,0-.44-1.44,3.35,3.35,0,0,0-1-1.11,3.11,3.11,0,0,0-1.62-.51,6.53,6.53,0,0,0-2.26.32,14.24,14.24,0,0,0-3,1.36,14.46,14.46,0,0,0-2.68,1.91,6.48,6.48,0,0,0-1.4,1.8,3.11,3.11,0,0,0,.08,3.1,3.41,3.41,0,0,0,1,1.11A3.3,3.3,0,0,0,748,218a6.57,6.57,0,0,0,2.27-.31A14,14,0,0,0,753.25,216.3Z" transform="translate(-0.49 -0.12)"/><path d="M602.38,61.64A13.64,13.64,0,0,1,600,64.78a7.94,7.94,0,0,1-2.52,1.71,5.4,5.4,0,0,1-2.53.41,5.85,5.85,0,0,1-2.4-.78,5.74,5.74,0,0,1-1.87-1.69,5.29,5.29,0,0,1-.91-2.39,7.91,7.91,0,0,1,.22-3,14.41,14.41,0,0,1,1.54-3.62,13.76,13.76,0,0,1,2.37-3.15,7.94,7.94,0,0,1,2.52-1.71,5.38,5.38,0,0,1,2.53-.41,5.84,5.84,0,0,1,2.39.77,5.75,5.75,0,0,1,1.87,1.69,5.27,5.27,0,0,1,.92,2.4,8.09,8.09,0,0,1-.21,3A14.31,14.31,0,0,1,602.38,61.64Zm-2-1.18a13.65,13.65,0,0,0,1.35-3A6.61,6.61,0,0,0,602,55.2a3.14,3.14,0,0,0-1.62-2.65,3.15,3.15,0,0,0-1.45-.44,3.22,3.22,0,0,0-1.65.36,6.93,6.93,0,0,0-1.81,1.41,14.23,14.23,0,0,0-1.9,2.67,14,14,0,0,0-1.36,3,6.32,6.32,0,0,0-.32,2.26,3.2,3.2,0,0,0,.51,1.61,3.25,3.25,0,0,0,1.11,1,3.41,3.41,0,0,0,1.45.44,3.13,3.13,0,0,0,1.65-.37,6.25,6.25,0,0,0,1.8-1.4A13.59,13.59,0,0,0,600.33,60.46Z" transform="translate(-0.49 -0.12)"/><path d="M617,61.3a1.11,1.11,0,0,1-.67.54,1.37,1.37,0,0,1-1-.24L610.72,59l-2.83,3.39a11.34,11.34,0,0,1,2.24,1A6.59,6.59,0,0,1,612,64.84a5,5,0,0,1,1,1.82,4.78,4.78,0,0,1,.08,2,6.52,6.52,0,0,1-2.38,3.87,5.81,5.81,0,0,1-2.09,1,5.65,5.65,0,0,1-2.32.06,6.85,6.85,0,0,1-2.34-.86,7,7,0,0,1-1.2-.86,7.27,7.27,0,0,1-.93-1,7.14,7.14,0,0,1-.68-1.08,8,8,0,0,1-.46-1.07l1.1-.5a.69.69,0,0,1,.68,0,1,1,0,0,1,.39.44q.16.3.42.72a6.4,6.4,0,0,0,.66.86,4.82,4.82,0,0,0,1.1.85,4.47,4.47,0,0,0,1.51.55,3.35,3.35,0,0,0,1.45-.1,3.55,3.55,0,0,0,1.29-.7,5.09,5.09,0,0,0,1-1.27,4.06,4.06,0,0,0,.5-1.35,2.9,2.9,0,0,0,0-1.28,3.11,3.11,0,0,0-.66-1.18,5,5,0,0,0-1.27-1,9.33,9.33,0,0,0-2.61-1l-1-1.07,5.25-6.32,7.12,4.11Z" transform="translate(-0.49 -0.12)"/><path d="M396.86,6.73l-.42.53c-.13.17-.26.33-.38.5a5.52,5.52,0,0,1,1.3-.6A5.46,5.46,0,0,1,398.9,7a5.8,5.8,0,0,1,2,.33,4.92,4.92,0,0,1,1.63,1,4.79,4.79,0,0,1,1.1,1.62,5.42,5.42,0,0,1,.41,2.19,5.67,5.67,0,0,1-.43,2.22,5.18,5.18,0,0,1-1.22,1.79,5.81,5.81,0,0,1-1.87,1.19,6.89,6.89,0,0,1-4.79,0,5.14,5.14,0,0,1-1.81-1.19,5.31,5.31,0,0,1-1.15-1.87,7,7,0,0,1-.4-2.43,6.51,6.51,0,0,1,.5-2.42,11.87,11.87,0,0,1,1.57-2.73l4.34-5.8a1.15,1.15,0,0,1,.49-.39A1.53,1.53,0,0,1,400,.31h2Zm-2.35,5.47a4.28,4.28,0,0,0,.24,1.47,3.08,3.08,0,0,0,.68,1.15,3,3,0,0,0,1.1.74,3.88,3.88,0,0,0,1.49.27,4.11,4.11,0,0,0,1.52-.27,3.36,3.36,0,0,0,1.17-.75,3.43,3.43,0,0,0,.75-1.14,3.66,3.66,0,0,0,.26-1.42,4.12,4.12,0,0,0-.25-1.49,3.17,3.17,0,0,0-.74-1.13,3.38,3.38,0,0,0-1.12-.7,4.2,4.2,0,0,0-1.45-.24,3.88,3.88,0,0,0-1.52.28,3.42,3.42,0,0,0-1.15.77,3.24,3.24,0,0,0-.73,1.12A3.75,3.75,0,0,0,394.51,12.2Z" transform="translate(-0.49 -0.12)"/><path d="M418.22,8.91a14.2,14.2,0,0,1-.48,3.92,8.43,8.43,0,0,1-1.33,2.74,5.39,5.39,0,0,1-2,1.61,6,6,0,0,1-4.92,0,5.44,5.44,0,0,1-2-1.61,8.43,8.43,0,0,1-1.33-2.74,14.22,14.22,0,0,1-.47-3.92A14.2,14.2,0,0,1,406.17,5a8.33,8.33,0,0,1,1.33-2.74,5.44,5.44,0,0,1,2-1.61,6,6,0,0,1,4.92,0,5.39,5.39,0,0,1,2,1.61A8.33,8.33,0,0,1,417.74,5,14.17,14.17,0,0,1,418.22,8.91Zm-2.36,0a14.3,14.3,0,0,0-.32-3.26,6.67,6.67,0,0,0-.87-2.12,3.22,3.22,0,0,0-1.25-1.15,3.37,3.37,0,0,0-2.95,0,3.22,3.22,0,0,0-1.25,1.15,6.45,6.45,0,0,0-.85,2.12,13.75,13.75,0,0,0-.32,3.26,13.82,13.82,0,0,0,.32,3.28,6.45,6.45,0,0,0,.85,2.12,3.27,3.27,0,0,0,1.25,1.14,3.37,3.37,0,0,0,2.95,0,3.27,3.27,0,0,0,1.25-1.14,6.67,6.67,0,0,0,.87-2.12A14.36,14.36,0,0,0,415.86,8.91Z" transform="translate(-0.49 -0.12)"/></svg>