<svg id="Layer_1" data-name="Layer 1" xmlns="http://www.w3.org/2000/svg" viewBox="0 0 792.62 798.53"><defs><style>.cls-1{fill:#85c5ae;}.cls-2{fill:#2a3220;}</style></defs><title>nomos_metro_gangreserve</title><circle class="cls-1" cx="64.32" cy="396.64" r="13.89"/><circle class="cls-1" cx="728.31" cy="396.65" r="13.89"/><circle class="cls-1" cx="396.32" cy="64.65" r="13.89"/><circle class="cls-2" cx="355.34" cy="6.79" r="4.5"/><circle class="cls-2" cx="314.82" cy="13.21" r="4.5"/><circle class="cls-2" cx="275.19" cy="23.82" r="4.5"/><circle class="cls-2" cx="236.89" cy="38.52" r="4.5"/><circle class="cls-2" cx="165.92" cy="79.49" r="4.5"/><circle class="cls-2" cx="134.03" cy="105.3" r="4.5"/><circle class="cls-2" cx="105.02" cy="134.31" r="4.5"/><circle class="cls-2" cx="79.19" cy="166.2" r="4.5"/><circle class="cls-2" cx="38.22" cy="237.16" r="4.5"/><circle class="cls-2" cx="23.51" cy="275.46" r="4.5"/><circle class="cls-2" cx="12.89" cy="315.09" r="4.5"/><circle class="cls-2" cx="6.47" cy="355.61" r="4.5"/><circle class="cls-2" cx="6.46" cy="437.56" r="4.5"/><circle class="cls-2" cx="12.87" cy="478.08" r="4.5"/><circle class="cls-2" cx="23.49" cy="517.71" r="4.5"/><circle class="cls-2" cx="38.19" cy="556.01" r="4.5"/><circle class="cls-2" cx="79.16" cy="626.98" r="4.5"/><circle class="cls-2" cx="104.97" cy="658.87" r="4.5"/><circle class="cls-2" cx="133.98" cy="687.88" r="4.5"/><circle class="cls-2" cx="165.86" cy="713.71" r="4.5"/><circle class="cls-2" cx="236.83" cy="754.68" r="4.5"/><circle class="cls-2" cx="275.13" cy="769.39" r="4.5"/><circle class="cls-2" cx="314.76" cy="780.01" r="4.5"/><circle class="cls-2" cx="477.75" cy="780.03" r="4.5"/><circle class="cls-2" cx="517.38" cy="769.41" r="4.5"/><circle class="cls-2" cx="555.68" cy="754.71" r="4.5"/><circle class="cls-2" cx="626.65" cy="713.74" r="4.5"/><circle class="cls-2" cx="658.54" cy="687.93" r="4.5"/><circle class="cls-2" cx="687.55" cy="658.92" r="4.5"/><circle class="cls-2" cx="713.37" cy="627.03" r="4.5"/><circle class="cls-2" cx="754.35" cy="556.07" r="4.5"/><circle class="cls-2" cx="769.06" cy="517.77" r="4.5"/><circle class="cls-2" cx="779.68" cy="478.14" r="4.5"/><circle class="cls-2" cx="786.1" cy="437.62" r="4.5"/><circle class="cls-2" cx="786.11" cy="355.68" r="4.5"/><circle class="cls-2" cx="779.69" cy="315.15" r="4.5"/><circle class="cls-2" cx="769.08" cy="275.52" r="4.5"/><circle class="cls-2" cx="754.38" cy="237.22" r="4.5"/><circle class="cls-2" cx="713.41" cy="166.25" r="4.5"/><circle class="cls-2" cx="687.59" cy="134.36" r="4.5"/><circle class="cls-2" cx="658.59" cy="105.35" r="4.5"/><circle class="cls-2" cx="626.7" cy="79.52" r="4.5"/><circle class="cls-2" cx="555.74" cy="38.55" r="4.5"/><circle class="cls-2" cx="517.44" cy="23.84" r="4.5"/><circle class="cls-2" cx="477.81" cy="13.22" r="4.5"/><circle class="cls-2" cx="437.29" cy="6.8" r="4.5"/><circle class="cls-2" cx="230.32" cy="109.12" r="8.57"/><circle class="cls-2" cx="108.8" cy="230.63" r="8.57"/><circle class="cls-2" cx="108.78" cy="562.63" r="8.57"/><circle class="cls-2" cx="230.3" cy="684.15" r="8.57"/><circle class="cls-2" cx="562.29" cy="684.16" r="8.57"/><circle class="cls-2" cx="683.81" cy="562.65" r="8.57"/><circle class="cls-2" cx="683.82" cy="230.65" r="8.57"/><circle class="cls-2" cx="562.31" cy="109.13" r="8.57"/><path d="M397.09,10.54a9.53,9.53,0,0,0-2,.12,7.93,7.93,0,0,0-6.78,6.93h.09a5.81,5.81,0,0,1,4.71-2.25c3.45,0,5.88,2.49,5.88,6.3,0,3.57-2.43,6.87-6.48,6.87s-6.9-3.24-6.9-8.31a12.26,12.26,0,0,1,3.3-8.79,10.62,10.62,0,0,1,6.24-2.88,12.68,12.68,0,0,1,1.92-.15Zm-.75,11.25c0-2.79-1.59-4.47-4-4.47a4.34,4.34,0,0,0-3.78,2.4,2.25,2.25,0,0,0-.3,1.17c.06,3.21,1.53,5.58,4.29,5.58C394.81,26.47,396.34,24.58,396.34,21.79Z" transform="translate(-3.68 -8.35)"/><path d="M414.31,18.22c0,6.63-2.46,10.29-6.78,10.29-3.81,0-6.39-3.57-6.45-10s2.82-10.14,6.78-10.14S414.31,12,414.31,18.22Zm-10.59.3c0,5.07,1.56,8,4,8,2.7,0,4-3.15,4-8.13,0-4.8-1.23-7.95-4-7.95C405.4,10.39,403.72,13.21,403.72,18.52Z" transform="translate(-3.68 -8.35)"/><path d="M200.88,64.9l-6.45,3.72,1.86,4.71a9.75,9.75,0,0,1,1.32-.9,8.24,8.24,0,0,1,4.16-1.19,5.55,5.55,0,0,1,4.92,3c1.9,3.29.7,7.28-3,9.39A9.42,9.42,0,0,1,198.92,85l-.43-2.07a8.68,8.68,0,0,0,4.15-1.15c2.16-1.24,3.19-3.71,1.89-6s-3.64-2.89-7-.94a19.72,19.72,0,0,0-2.23,1.54l-3.59-8.74L199.77,63Z" transform="translate(-3.68 -8.35)"/><path d="M214.2,57.2l-6.44,3.72,1.86,4.72a10.22,10.22,0,0,1,1.31-.9,8.2,8.2,0,0,1,4.16-1.19A5.56,5.56,0,0,1,220,66.49c1.9,3.3.7,7.28-3,9.4a9.65,9.65,0,0,1-4.81,1.39l-.43-2.07A8.79,8.79,0,0,0,216,74.06c2.15-1.25,3.19-3.71,1.88-6s-3.64-2.88-7-.93a19.67,19.67,0,0,0-2.24,1.53L205,60l8.08-4.67Z" transform="translate(-3.68 -8.35)"/><path d="M57.5,210l-3.71,6.44,4,3.16a9.87,9.87,0,0,1,.69-1.44,8.26,8.26,0,0,1,3-3.11,5.55,5.55,0,0,1,5.73.09c3.3,1.9,4.26,6,2.14,9.61a9.4,9.4,0,0,1-3.47,3.61l-1.41-1.57a8.79,8.79,0,0,0,3-3.07c1.25-2.16.91-4.82-1.35-6.12s-4.6-.68-6.55,2.7a22.16,22.16,0,0,0-1.17,2.44L50.92,217l4.66-8.08Z" transform="translate(-3.68 -8.35)"/><path d="M72.2,199.21c5.74,3.31,7.68,7.27,5.52,11-1.9,3.3-6.29,3.75-11.9.58s-7.37-7.51-5.39-10.94S66.82,196.1,72.2,199.21Zm-5,9.32c4.39,2.53,7.67,2.62,8.87.55,1.35-2.34-.73-5-5-7.52-4.15-2.4-7.5-2.91-8.86-.55C61,203,62.57,205.88,67.16,208.53Z" transform="translate(-3.68 -8.35)"/><path d="M23.18,410.86H17.87v9.06H16.13l-12.45-8.7v-2.84H15.8v-2.74h2.07v2.74h5.31Zm-7.38,0H9.29q-1.53,0-3.06-.09v.09c1.14.6,2,1.08,2.88,1.62l6.63,4.77h.06Z" transform="translate(-3.68 -8.35)"/><path d="M5.9,392v7.43l5,.75a10.43,10.43,0,0,1-.12-1.59,8.24,8.24,0,0,1,1.05-4.2,5.57,5.57,0,0,1,5-2.78c3.81,0,6.66,3,6.66,7.26a9.53,9.53,0,0,1-1.2,4.85l-2-.66a8.73,8.73,0,0,0,1.08-4.17c0-2.49-1.62-4.61-4.23-4.61s-4.32,1.7-4.32,5.6a20.17,20.17,0,0,0,.21,2.7l-9.36-1.26V392Z" transform="translate(-3.68 -8.35)"/><path d="M53.09,598.48l4.59-2.65L53.15,588l1.51-.87,15.13,1.31,1.43,2.47L60.72,597l1.37,2.36-1.8,1L58.93,598l-4.6,2.66Zm6.39-3.69,5.63-3.25c.89-.51,1.79-1,2.7-1.46l0-.07c-1.28,0-2.25,0-3.3,0l-8.13-.81,0,0Z" transform="translate(-3.68 -8.35)"/><path d="M71.81,611c-5.75,3.31-10.15,3-12.31-.73-1.9-3.3-.1-7.32,5.46-10.6s10.19-2.62,12.17.8S77.18,607.88,71.81,611Zm-5.56-9c-4.39,2.54-6.1,5.33-4.9,7.41,1.35,2.34,4.72,1.88,9-.61s6.27-5,4.91-7.41C74.13,599.35,70.85,599.31,66.25,602Z" transform="translate(-3.68 -8.35)"/><path d="M191.3,739.62a8.89,8.89,0,0,0,3.12,3.23c2.94,1.69,4.93.35,5.71-1.07,1.34-2.38-.2-4.62-2.41-5.9l-1.27-.73,1-1.72,1.27.74c1.66,1,4.26,1.32,5.42-.68.78-1.36.61-3-1.5-4.26a7.14,7.14,0,0,0-4-.83l.36-2a9.27,9.27,0,0,1,5.17,1.25c3.33,1.92,3.69,4.76,2.51,6.82-1,1.74-2.9,2.62-5.41,2.17l0,0a5.1,5.1,0,0,1,1.26,6.52c-1.56,2.7-5,3.85-9.08,1.51a9.84,9.84,0,0,1-3.73-3.68Z" transform="translate(-3.68 -8.35)"/><path d="M221.29,740.48l-6.45-3.72-3.15,4a10.39,10.39,0,0,1,1.44.69,8.26,8.26,0,0,1,3.11,3,5.55,5.55,0,0,1-.09,5.73c-1.91,3.3-6,4.25-9.62,2.14a9.69,9.69,0,0,1-3.61-3.47l1.58-1.41a8.79,8.79,0,0,0,3.07,3c2.16,1.24,4.81.91,6.12-1.36s.68-4.59-2.7-6.54a19.67,19.67,0,0,0-2.44-1.17l5.77-7.47,8.08,4.66Z" transform="translate(-3.68 -8.35)"/><path d="M586.42,756l-.82-1.4.79-2.78c1.94-6.59,2.63-9.9,1.19-12.46-1-1.72-2.74-2.82-5.26-1.37a6.7,6.7,0,0,0-2.76,3.5l-1.65-1.19a8.49,8.49,0,0,1,3.79-4.47c3.63-2.1,6.61-.49,8,1.92,1.8,3.12,1,6.94-.58,12.43l-.63,2,0,0,7.58-4.38,1.1,1.89Z" transform="translate(-3.68 -8.35)"/><path d="M601.18,727.5l-6.44,3.72,1.86,4.71a10.32,10.32,0,0,1,1.31-.89,8.28,8.28,0,0,1,4.16-1.2,5.58,5.58,0,0,1,4.93,2.95c1.9,3.3.7,7.28-3,9.4a9.67,9.67,0,0,1-4.81,1.39l-.43-2.07a8.79,8.79,0,0,0,4.15-1.15c2.15-1.25,3.19-3.72,1.88-6s-3.64-2.88-7-.93a18.8,18.8,0,0,0-2.24,1.53L592,730.24l8.08-4.66Z" transform="translate(-3.68 -8.35)"/><path d="M736.93,615.75l-1.4-.82-.71-2.79c-1.61-6.68-2.67-9.89-5.2-11.39-1.71-1-3.78-1.07-5.23,1.45a6.6,6.6,0,0,0-.64,4.41l-2-.21a8.55,8.55,0,0,1,1-5.77c2.1-3.63,5.48-3.73,7.9-2.33,3.11,1.8,4.33,5.51,5.7,11.05l.47,2.07,0,0,4.38-7.59,1.9,1.09Z" transform="translate(-3.68 -8.35)"/><path d="M742.48,586.21c5.74,3.32,7.68,7.28,5.52,11-1.9,3.3-6.28,3.75-11.9.58s-7.37-7.52-5.39-10.94S737.1,583.11,742.48,586.21Zm-5,9.33c4.39,2.53,7.66,2.62,8.86.54,1.35-2.34-.73-5-5-7.52-4.15-2.4-7.49-2.91-8.86-.54C731.25,590,732.85,592.88,737.45,595.54Z" transform="translate(-3.68 -8.35)"/><path d="M793.84,396.69v-.06L792,393.24l2-.51L796.3,397v2.25H776.8v-2.55Z" transform="translate(-3.68 -8.35)"/><path d="M794.08,418v-7.44l-5-.75a10.43,10.43,0,0,1,.12,1.59,8.24,8.24,0,0,1-1.05,4.2,5.56,5.56,0,0,1-5,2.79c-3.81,0-6.66-3-6.66-7.26a9.55,9.55,0,0,1,1.2-4.86l2,.66a8.73,8.73,0,0,0-1.08,4.17c0,2.49,1.62,4.62,4.23,4.62s4.32-1.71,4.32-5.61a20.17,20.17,0,0,0-.21-2.7l9.36,1.26V418Z" transform="translate(-3.68 -8.35)"/><path d="M736.92,200.88l0-.06-3.28-2,1.49-1.44,4.1,2.55,1.13,2-16.89,9.74-1.27-2.2Z" transform="translate(-3.68 -8.35)"/><path d="M742.1,224c-5.74,3.31-10.14,3-12.3-.73-1.9-3.3-.1-7.32,5.45-10.6s10.2-2.62,12.17.81S747.48,220.9,742.1,224Zm-5.55-9c-4.39,2.54-6.11,5.33-4.91,7.41,1.35,2.34,4.73,1.88,9-.61,4.15-2.4,6.27-5,4.9-7.4C744.43,212.38,741.15,212.33,736.55,215Z" transform="translate(-3.68 -8.35)"/><path d="M592.45,69.5c-3.32,5.75-7.28,7.69-11,5.52-3.3-1.9-3.75-6.28-.57-11.9s7.51-7.37,10.94-5.39S595.55,64.13,592.45,69.5Zm-9.32-5c-2.54,4.39-2.63,7.66-.55,8.86,2.34,1.35,5-.73,7.52-5s2.91-7.5.55-8.87C588.65,58.27,585.78,59.87,583.13,64.47Z" transform="translate(-3.68 -8.35)"/><path d="M608.29,70.2l-6.44-3.72-3.15,4a11.68,11.68,0,0,1,1.43.69,8.26,8.26,0,0,1,3.11,3,5.57,5.57,0,0,1-.08,5.74c-1.91,3.3-6,4.25-9.62,2.14a9.62,9.62,0,0,1-3.61-3.47l1.58-1.42a8.63,8.63,0,0,0,3.07,3c2.15,1.24,4.81.9,6.11-1.36s.68-4.59-2.69-6.54a19.7,19.7,0,0,0-2.45-1.17l5.77-7.48,8.08,4.67Z" transform="translate(-3.68 -8.35)"/><path d="M310.71,803.25c-.06-1.13-.13-2.48-.12-3.49h0c-.27,1-.61,2-1,3.07l-1.43,3.92h-.79L306,802.9c-.39-1.14-.71-2.18-.94-3.14h0c0,1-.09,2.36-.16,3.58l-.22,3.46h-1l.56-8.08h1.33l1.38,3.91c.34,1,.62,1.88.82,2.72h0c.2-.81.49-1.7.85-2.72l1.44-3.91h1.33l.5,8.08h-1Z" transform="translate(-3.68 -8.35)"/><path d="M321.59,804.26l-.84,2.54h-1.07l2.74-8.08h1.26l2.76,8.08h-1.12l-.86-2.54Zm2.65-.82-.79-2.32c-.18-.53-.3-1-.42-1.48h0c-.12.48-.25,1-.41,1.46l-.79,2.34Z" transform="translate(-3.68 -8.35)"/><path d="M334.5,798.83a14.3,14.3,0,0,1,2.21-.17,4.65,4.65,0,0,1,3.28,1,3.71,3.71,0,0,1,1.14,2.9,4.25,4.25,0,0,1-1.17,3.14,4.94,4.94,0,0,1-3.57,1.16,16.84,16.84,0,0,1-1.89-.09Zm1,7.14a6.32,6.32,0,0,0,1,.06A3.11,3.11,0,0,0,340,802.6c0-1.9-1.07-3.11-3.28-3.11a6,6,0,0,0-1.22.1Z" transform="translate(-3.68 -8.35)"/><path d="M353.54,803h-3.15v2.92h3.51v.87h-4.55v-8.08h4.37v.87h-3.33v2.56h3.15Z" transform="translate(-3.68 -8.35)"/><path d="M372.57,798.72v8.08h-1v-8.08Z" transform="translate(-3.68 -8.35)"/><path d="M381.26,806.8v-8.08h1.14l2.59,4.09a23,23,0,0,1,1.45,2.62h0c-.09-1.08-.12-2.06-.12-3.32v-3.38h1v8.08h-1.06l-2.56-4.1a24.7,24.7,0,0,1-1.52-2.7h0c.06,1,.08,2,.08,3.34v3.45Z" transform="translate(-3.68 -8.35)"/><path d="M411.58,806.44a7.45,7.45,0,0,1-2.48.45,3.79,3.79,0,0,1-4.15-4.08,4.05,4.05,0,0,1,4.37-4.18,5,5,0,0,1,2,.38l-.25.85a4.21,4.21,0,0,0-1.79-.35,3,3,0,0,0-3.25,3.25,3,3,0,0,0,3.12,3.26,3.43,3.43,0,0,0,1.39-.21V803.4h-1.64v-.84h2.66Z" transform="translate(-3.68 -8.35)"/><path d="M424.23,803h-3.14v2.92h3.5v.87H420v-8.08h4.37v.87h-3.32v2.56h3.14Z" transform="translate(-3.68 -8.35)"/><path d="M432.81,798.83a10.66,10.66,0,0,1,2-.17,3.28,3.28,0,0,1,2.34.66,2,2,0,0,1,.64,1.53,2.13,2.13,0,0,1-1.53,2.07v0a2,2,0,0,1,1.19,1.63,13,13,0,0,0,.63,2.22H437a9.25,9.25,0,0,1-.54-1.93c-.24-1.11-.68-1.53-1.62-1.57h-1v3.5h-1Zm1,3.68h1.07c1.12,0,1.82-.61,1.82-1.54s-.75-1.5-1.85-1.51a4.18,4.18,0,0,0-1,.1Z" transform="translate(-3.68 -8.35)"/><path d="M452.94,803.25c-.06-1.13-.13-2.48-.12-3.49h0c-.28,1-.62,2-1,3.07l-1.43,3.92h-.79l-1.31-3.85c-.38-1.14-.71-2.18-.93-3.14h0c0,1-.08,2.36-.15,3.58l-.22,3.46h-1l.57-8.08h1.33l1.38,3.91c.33,1,.61,1.88.81,2.72h0c.2-.81.49-1.7.85-2.72l1.44-3.91h1.33l.51,8.08h-1Z" transform="translate(-3.68 -8.35)"/><path d="M463.83,804.26,463,806.8h-1.08l2.75-8.08h1.26l2.76,8.08h-1.12l-.86-2.54Zm2.65-.82-.79-2.32c-.18-.53-.3-1-.42-1.48h0c-.12.48-.26,1-.41,1.46l-.79,2.34Z" transform="translate(-3.68 -8.35)"/><path d="M476.73,806.8v-8.08h1.14l2.59,4.09a23,23,0,0,1,1.45,2.62h0c-.1-1.08-.12-2.06-.12-3.32v-3.38h1v8.08h-1.06l-2.56-4.1a23,23,0,0,1-1.51-2.7h0c.06,1,.08,2,.08,3.34v3.45Z" transform="translate(-3.68 -8.35)"/><path d="M493.21,806.8v-3.43l-2.56-4.65h1.19L493,801c.31.61.55,1.1.8,1.67h0c.22-.53.5-1.06.81-1.67l1.16-2.23H497l-2.71,4.64v3.44Z" transform="translate(-3.68 -8.35)"/><path d="M256.9,373.23H254V361.36l-15.65,11.33L223,361.6v11.58h-3V356.1l18.34,13.39,18.55-13.44Z" transform="translate(-3.68 -8.35)"/><path d="M194.32,355.93a11,11,0,0,1,9.42,4.27c2.09,2.65,1.45,7.84-.4,9.77-3.65,3.82-7.94,4.72-12.78,3.28s-8.07-5.71-6.56-10.65c1-3.14,3.36-5,6.38-6.08A9.85,9.85,0,0,1,194.32,355.93Zm.27,2.43c-2.72-.06-5.7,1.24-6.85,3.17a6,6,0,0,0,2.72,8.94c4.28,2,8.16.88,11-3a4.4,4.4,0,0,0,.34-4.8A7.88,7.88,0,0,0,194.59,358.36Z" transform="translate(-3.68 -8.35)"/><path d="M282.42,355.87c4.36,0,8,1.73,10.09,5.67a7.12,7.12,0,0,1-.37,7.17c-3.18,5.46-10.49,6.28-15.2,3.93s-6.55-6.89-4.15-11.72c1.53-3.06,4.54-4.43,7.88-4.94C281.23,355.9,281.8,355.9,282.42,355.87Zm-7.78,8.87a5.41,5.41,0,0,0,2.46,4.84,8.67,8.67,0,0,0,11.4-.66c1.9-1.87,2.19-6,.32-7.88a9,9,0,0,0-7.72-2.6C277.73,358.83,274.41,362,274.64,364.74Z" transform="translate(-3.68 -8.35)"/><path d="M323.33,359.58l-2.78,1a8.39,8.39,0,0,0-9.19-1.52,1.77,1.77,0,0,0-1.17,1.79c0,.78.5,1.12,1.19,1.41a34.25,34.25,0,0,0,6,1.39,11.77,11.77,0,0,1,5.11,2,4,4,0,0,1,.17,5.93,9.42,9.42,0,0,1-5.18,2.13c-3.54.35-7,.21-10-2.2a4.19,4.19,0,0,1-1.27-1.92c.8-.59,1.8-.47,2.66-1.05a7,7,0,0,0,5.74,2.89c2.28.11,4.43-.14,6.1-2.17a2,2,0,0,0,0-1.2,6.25,6.25,0,0,0-3.93-1.93c-2.46-.53-5-.7-7.32-1.77-1.41-.64-2.55-1.48-2.65-3.23a3.9,3.9,0,0,1,2.27-3.88,13.44,13.44,0,0,1,11.79,0C321.9,357.69,322.49,358.66,323.33,359.58Z" transform="translate(-3.68 -8.35)"/><path d="M166.82,356.63a10.89,10.89,0,0,1,2.92,0v17.08l-16.08-11.92v11.31a8.21,8.21,0,0,1-2.7.1V356.43l15.86,11.75Z" transform="translate(-3.68 -8.35)"/><path d="M240.29,382.66a2.7,2.7,0,0,1,1.7.06v10.82a3,3,0,0,1-1.63.09v-5.37h-3.59c-.35,1.76,0,3.51-.22,5.21-.44.36-.9.2-1.48.15V382.76c.4-.33.86-.19,1.38-.13.41,1.33,0,2.73.28,4.17,1.12.39,2.27.1,3.56.17Z" transform="translate(-3.68 -8.35)"/><path d="M181.52,384.56a1.22,1.22,0,0,1-1.11.45c-.46-.15-.55-.71-.95-1a2.4,2.4,0,0,0-2.6,0,8.85,8.85,0,0,0-.08,7.88,2.58,2.58,0,0,0,2.87.38,3.67,3.67,0,0,0,.86-3.06c-.58-.52-1.26-.14-1.84-.39-.37-.25-.17-.61-.2-1a19,19,0,0,1,3.61-.05,6.92,6.92,0,0,1,0,3c-.3,2-1.28,2.9-3.41,3.07a3.86,3.86,0,0,1-4.12-2.51,11.55,11.55,0,0,1,.05-6.69c.47-1.56,1.78-2.28,3.78-2.24A3,3,0,0,1,181.52,384.56Z" transform="translate(-3.68 -8.35)"/><path d="M258.88,392.68c-2.71,1.68-4.45,1.59-6.08,0a2,2,0,0,1-.68-1.48c0-2.82,0-5.63,0-8.42a1.71,1.71,0,0,1,1.5-.11c.42,3.05-.25,6.21.4,9.21a2.62,2.62,0,0,0,3.14.31c.9-3,0-6.29.5-9.45a1.81,1.81,0,0,1,1.58,0C259,386.07,259.58,389.49,258.88,392.68Z" transform="translate(-3.68 -8.35)"/><path d="M206.57,382.7a3,3,0,0,1,1.68-.07l3.62,10.87a2.61,2.61,0,0,1-1.62.13c-.44-.53-.41-1.24-.74-2a12.12,12.12,0,0,0-4.25,0l-.63,1.91a2.52,2.52,0,0,1-1.62.09Zm2.24,7.41a22.8,22.8,0,0,0-1.42-5.28,17.09,17.09,0,0,0-1.4,5.38A7.44,7.44,0,0,0,208.81,390.11Z" transform="translate(-3.68 -8.35)"/><path d="M298.24,383.73v3.45h3.55c.52.39.37.74.29,1.24h-3.84v4.07h3.66a.79.79,0,0,1,.39,1.13h-5.77v-11c1.94-.21,3.86-.06,5.7-.09a.89.89,0,0,1-.11,1.17Z" transform="translate(-3.68 -8.35)"/><path d="M225.06,383.14c-.17.45-.24.75-.44.86-.52.24-.77-.14-1.11-.22-.84-.2-1.67-.25-2.17.64a1.72,1.72,0,0,0,.56,2.21,25.62,25.62,0,0,0,2.13,1.74,3.24,3.24,0,0,1,1.36,3.74,3,3,0,0,1-2.95,1.81,3.86,3.86,0,0,1-2.92-1c-.19-.45,0-.73.3-1.1,1.11.19,2.13,1.4,3.41.53.76-1.34.66-2.41-.52-3.2-.73-.5-1.29-1.19-2-1.64-1.24-.8-1.26-1.93-1.11-3.12s1.22-1.56,2.21-1.86A3.72,3.72,0,0,1,225.06,383.14Z" transform="translate(-3.68 -8.35)"/><path d="M192.53,392.52h3.6c.07.66-.4.84-.61,1.13h-4.64V382.71c.51-.32,1-.12,1.65,0Z" transform="translate(-3.68 -8.35)"/><path d="M281.64,383.68c-.07-.4-.17-.71.13-1.05h6.36a.82.82,0,0,1,.09,1c-.68.31-1.43,0-2.32.29v9.44a1.93,1.93,0,0,1-1.71.21V384C283.27,383.63,282.47,383.93,281.64,383.68Z" transform="translate(-3.68 -8.35)"/><path d="M269.92,384.15c-1.07-.58-1.93-.18-2.72-.46-.28-.31-.23-.63,0-1.06h6.69c.36.29.26.63.15,1-.74.43-1.64-.09-2.57.5v9.19a1.28,1.28,0,0,1-1.53.2Z" transform="translate(-3.68 -8.35)"/><path d="M254.83,381.14a1.68,1.68,0,0,1-1.64.07c-.33-.62-.28-1.19.56-1.29C254.44,379.85,255.11,380.08,254.83,381.14Z" transform="translate(-3.68 -8.35)"/><path d="M256.86,381.21a.79.79,0,0,1-.18-.76.58.58,0,0,1,.45-.46c1.18,0,1.18,0,1.37,1.06C258,381.39,257.42,381.61,256.86,381.21Z" transform="translate(-3.68 -8.35)"/></svg>