<svg id="Layer_1" data-name="Layer 1" xmlns="http://www.w3.org/2000/svg" viewBox="0 0 370 370"><defs><style>.cls-1{fill:#2a3220;}</style></defs><title>nomos_metro_gangreserve_seconds</title><rect class="cls-1" x="185.5" y="0.5" width="3" height="49"/><path class="cls-1" d="M201,23V71h-2V23h2m1-1h-4V72h4V22Z" transform="translate(-13 -22)"/><rect class="cls-1" x="118.23" y="42.94" width="3" height="49" transform="translate(-30.68 46.91) rotate(-30)"/><path class="cls-1" d="M108.6,46.15l24,41.57-1.73,1-24-41.57,1.73-1m.36-1.36-3.46,2,25,43.3,3.46-2-25-43.3Z" transform="translate(-13 -22)"/><rect class="cls-1" x="58.94" y="100.77" width="3" height="49" transform="translate(-91.27 92.96) rotate(-60)"/><path class="cls-1" d="M40.15,112.4l41.57,24-1,1.73-41.57-24,1-1.73M39.79,111l-2,3.46,43.3,25,2-3.46-43.3-25Z" transform="translate(-13 -22)"/><rect class="cls-1" x="0.5" y="181.5" width="49" height="3"/><path class="cls-1" d="M62,204v2H14v-2H62m1-1H13v4H63v-4Z" transform="translate(-13 -22)"/><rect class="cls-1" x="33.94" y="283.77" width="49" height="3" transform="translate(-147.81 45.44) rotate(-30)"/><path class="cls-1" d="M78.72,272.4l1,1.73-41.57,24-1-1.73,41.57-24m.37-1.36-43.3,25,2,3.46,43.3-25-2-3.46Z" transform="translate(-13 -22)"/><rect class="cls-1" x="91.77" y="343.06" width="49" height="3" transform="translate(-253.27 250.98) rotate(-60)"/><path class="cls-1" d="M127.4,323.28l1.73,1-24,41.57-1.73-1,24-41.57m-.36-1.37-25,43.3,3.46,2,25-43.3-3.46-2Z" transform="translate(-13 -22)"/><rect class="cls-1" x="181.5" y="320.5" width="3" height="49"/><path class="cls-1" d="M197,343v48h-2V343h2m1-1h-4v50h4V342Z" transform="translate(-13 -22)"/><rect class="cls-1" x="274.77" y="322.06" width="3" height="49" transform="translate(-149.25 162.53) rotate(-29.99)"/><path class="cls-1" d="M265.13,325.28l24,41.57-1.73,1-24-41.57,1.73-1m.37-1.37-3.46,2,25,43.3,3.46-2-25-43.3Z" transform="translate(-13 -22)"/><rect class="cls-1" x="334.06" y="264.23" width="3" height="49" transform="translate(-95.25 413.01) rotate(-60.01)"/><path class="cls-1" d="M315.28,275.87l41.57,24-1,1.73-41.57-24,1-1.73m-.37-1.37-2,3.46,43.3,25,2-3.46-43.3-25Z" transform="translate(-13 -22)"/><rect class="cls-1" x="320.5" y="185.5" width="49" height="3"/><path class="cls-1" d="M382,208v2H334v-2h48m1-1H333v4h50v-4Z" transform="translate(-13 -22)"/><rect class="cls-1" x="313.06" y="127.23" width="49" height="3" transform="translate(-32.14 164.02) rotate(-30)"/><path class="cls-1" d="M357.85,115.87l1,1.73-41.57,24-1-1.73,41.57-24m.36-1.37-43.3,25,2,3.46,43.3-25-2-3.46Z" transform="translate(-13 -22)"/><rect class="cls-1" x="255.23" y="67.94" width="49" height="3" transform="translate(66.73 254.97) rotate(-60)"/><path class="cls-1" d="M290.87,48.15l1.73,1-24,41.57-1.73-1,24-41.57m-.37-1.36-25,43.3,3.46,2,25-43.3-3.46-2Z" transform="translate(-13 -22)"/></svg>