<svg id="Layer_1" data-name="Layer 1" xmlns="http://www.w3.org/2000/svg" viewBox="0 0 792.62 807.87"><defs><style>.cls-1{fill:#85c5ae;}.cls-2{fill:#2a3220;}</style></defs><title>nomos_metro_gangreserve</title><circle class="cls-1" cx="64.32" cy="396.64" r="13.89"/><circle class="cls-1" cx="728.31" cy="396.65" r="13.89"/><circle class="cls-1" cx="396.32" cy="64.65" r="13.89"/><circle class="cls-2" cx="355.34" cy="6.79" r="4.5"/><circle class="cls-2" cx="314.82" cy="13.21" r="4.5"/><circle class="cls-2" cx="275.19" cy="23.82" r="4.5"/><circle class="cls-2" cx="236.89" cy="38.52" r="4.5"/><circle class="cls-2" cx="165.92" cy="79.49" r="4.5"/><circle class="cls-2" cx="134.03" cy="105.3" r="4.5"/><circle class="cls-2" cx="105.02" cy="134.31" r="4.5"/><circle class="cls-2" cx="79.19" cy="166.2" r="4.5"/><circle class="cls-2" cx="38.22" cy="237.16" r="4.5"/><circle class="cls-2" cx="23.51" cy="275.46" r="4.5"/><circle class="cls-2" cx="12.89" cy="315.09" r="4.5"/><circle class="cls-2" cx="6.47" cy="355.61" r="4.5"/><circle class="cls-2" cx="6.46" cy="437.56" r="4.5"/><circle class="cls-2" cx="12.87" cy="478.08" r="4.5"/><circle class="cls-2" cx="23.49" cy="517.71" r="4.5"/><circle class="cls-2" cx="38.19" cy="556.01" r="4.5"/><circle class="cls-2" cx="79.16" cy="626.98" r="4.5"/><circle class="cls-2" cx="104.97" cy="658.87" r="4.5"/><circle class="cls-2" cx="133.98" cy="687.88" r="4.5"/><circle class="cls-2" cx="165.86" cy="713.71" r="4.5"/><circle class="cls-2" cx="236.83" cy="754.68" r="4.5"/><circle class="cls-2" cx="275.13" cy="769.39" r="4.5"/><circle class="cls-2" cx="314.76" cy="780.01" r="4.5"/><circle class="cls-2" cx="477.75" cy="780.03" r="4.5"/><circle class="cls-2" cx="517.38" cy="769.41" r="4.5"/><circle class="cls-2" cx="555.68" cy="754.71" r="4.5"/><circle class="cls-2" cx="626.65" cy="713.74" r="4.5"/><circle class="cls-2" cx="658.54" cy="687.93" r="4.5"/><circle class="cls-2" cx="687.55" cy="658.92" r="4.5"/><circle class="cls-2" cx="713.37" cy="627.03" r="4.5"/><circle class="cls-2" cx="754.35" cy="556.07" r="4.5"/><circle class="cls-2" cx="769.06" cy="517.77" r="4.5"/><circle class="cls-2" cx="779.68" cy="478.14" r="4.5"/><circle class="cls-2" cx="786.1" cy="437.62" r="4.5"/><circle class="cls-2" cx="786.11" cy="355.68" r="4.5"/><circle class="cls-2" cx="779.69" cy="315.15" r="4.5"/><circle class="cls-2" cx="769.08" cy="275.52" r="4.5"/><circle class="cls-2" cx="754.38" cy="237.22" r="4.5"/><circle class="cls-2" cx="713.41" cy="166.25" r="4.5"/><circle class="cls-2" cx="687.59" cy="134.36" r="4.5"/><circle class="cls-2" cx="658.59" cy="105.35" r="4.5"/><circle class="cls-2" cx="626.7" cy="79.52" r="4.5"/><circle class="cls-2" cx="555.74" cy="38.55" r="4.5"/><circle class="cls-2" cx="517.44" cy="23.84" r="4.5"/><circle class="cls-2" cx="477.81" cy="13.22" r="4.5"/><circle class="cls-2" cx="437.29" cy="6.8" r="4.5"/><circle class="cls-2" cx="230.32" cy="109.12" r="8.57"/><circle class="cls-2" cx="108.8" cy="230.63" r="8.57"/><circle class="cls-2" cx="108.78" cy="562.63" r="8.57"/><circle class="cls-2" cx="230.3" cy="684.15" r="8.57"/><circle class="cls-2" cx="562.29" cy="684.16" r="8.57"/><circle class="cls-2" cx="683.81" cy="562.65" r="8.57"/><circle class="cls-2" cx="683.82" cy="230.65" r="8.57"/><circle class="cls-2" cx="562.31" cy="109.13" r="8.57"/><path d="M404,17.55a9.53,9.53,0,0,0-2,.12,7.93,7.93,0,0,0-6.78,6.93h.09a5.81,5.81,0,0,1,4.71-2.25c3.45,0,5.88,2.49,5.88,6.3,0,3.57-2.43,6.87-6.48,6.87s-6.9-3.24-6.9-8.31a12.26,12.26,0,0,1,3.3-8.79,10.62,10.62,0,0,1,6.24-2.88,12.68,12.68,0,0,1,1.92-.15Zm-.75,11.25c0-2.79-1.59-4.47-4-4.47a4.34,4.34,0,0,0-3.78,2.4,2.25,2.25,0,0,0-.3,1.17c.06,3.21,1.53,5.58,4.29,5.58C401.73,33.48,403.26,31.59,403.26,28.8Z" transform="translate(-10.6 -15.36)"/><path d="M421.23,25.23c0,6.63-2.46,10.29-6.78,10.29-3.81,0-6.39-3.57-6.45-10s2.82-10.14,6.78-10.14C418.89,15.36,421.23,19,421.23,25.23Zm-10.59.3c0,5.07,1.56,7.95,4,7.95,2.7,0,4-3.15,4-8.13,0-4.8-1.23-8-4-8C412.32,17.4,410.64,20.22,410.64,25.53Z" transform="translate(-10.6 -15.36)"/><path d="M207.79,71.9l-6.44,3.72,1.85,4.71a11.63,11.63,0,0,1,1.32-.9,8.27,8.27,0,0,1,4.16-1.19,5.57,5.57,0,0,1,4.92,3c1.91,3.3.71,7.28-2.95,9.4A9.67,9.67,0,0,1,205.84,92l-.43-2.08a8.67,8.67,0,0,0,4.15-1.14c2.15-1.25,3.19-3.72,1.88-6s-3.64-2.88-7-.93a19.43,19.43,0,0,0-2.23,1.53l-3.59-8.74L206.68,70Z" transform="translate(-10.6 -15.36)"/><path d="M221.12,64.21l-6.44,3.72,1.85,4.71a10.44,10.44,0,0,1,1.32-.9A8.27,8.27,0,0,1,222,70.55a5.56,5.56,0,0,1,4.92,2.94c1.91,3.3.71,7.29-3,9.4a9.47,9.47,0,0,1-4.81,1.39l-.44-2.07a8.68,8.68,0,0,0,4.15-1.15c2.16-1.24,3.2-3.71,1.89-6s-3.64-2.89-7-.94a22.38,22.38,0,0,0-2.23,1.53L211.93,67,220,62.28Z" transform="translate(-10.6 -15.36)"/><path d="M64.42,217l-3.72,6.45,4,3.15a10.39,10.39,0,0,1,.69-1.44,8.19,8.19,0,0,1,3-3.11,5.55,5.55,0,0,1,5.73.09c3.3,1.9,4.25,6,2.14,9.62a9.69,9.69,0,0,1-3.47,3.61l-1.41-1.58a8.79,8.79,0,0,0,3-3.07c1.24-2.16.9-4.81-1.36-6.12s-4.59-.68-6.54,2.7a19,19,0,0,0-1.17,2.44L57.83,224l4.67-8.08Z" transform="translate(-10.6 -15.36)"/><path d="M79.12,206.21c5.74,3.32,7.68,7.28,5.52,11-1.91,3.3-6.29,3.75-11.91.57s-7.37-7.51-5.39-10.94S73.74,203.11,79.12,206.21Zm-5,9.32c4.39,2.54,7.66,2.63,8.86.55,1.35-2.34-.73-5-5-7.52S70.4,205.65,69,208C67.88,210,69.48,212.88,74.08,215.53Z" transform="translate(-10.6 -15.36)"/><path d="M30.1,417.87H24.79v9.06H23.05l-12.45-8.7v-2.85H22.72v-2.73h2.07v2.73H30.1Zm-7.38,0H16.21q-1.53,0-3.06-.09v.09c1.14.6,2,1.08,2.88,1.62l6.63,4.77h.06Z" transform="translate(-10.6 -15.36)"/><path d="M12.82,399v7.44l5,.75a10.43,10.43,0,0,1-.12-1.59,8.24,8.24,0,0,1,1.05-4.2,5.56,5.56,0,0,1,5-2.79c3.81,0,6.66,3,6.66,7.26a9.55,9.55,0,0,1-1.2,4.86l-2-.66a8.73,8.73,0,0,0,1.08-4.17c0-2.49-1.62-4.62-4.23-4.62s-4.32,1.71-4.32,5.61a20.17,20.17,0,0,0,.21,2.7l-9.36-1.26V399Z" transform="translate(-10.6 -15.36)"/><path d="M60,605.48l4.6-2.65L60.07,595l1.51-.87,15.13,1.31,1.42,2.47L67.64,604,69,606.31l-1.79,1L65.84,605l-4.59,2.66Zm6.39-3.69L72,598.54c.88-.51,1.78-1,2.7-1.45l0-.08c-1.29,0-2.25,0-3.3,0l-8.13-.81,0,0Z" transform="translate(-10.6 -15.36)"/><path d="M78.72,618c-5.74,3.31-10.14,3-12.3-.73-1.9-3.3-.1-7.32,5.45-10.59s10.19-2.63,12.17.8S84.1,614.88,78.72,618Zm-5.55-9c-4.39,2.53-6.11,5.32-4.91,7.4,1.35,2.34,4.73,1.88,9-.61,4.15-2.4,6.27-5,4.9-7.4C81.05,606.36,77.77,606.31,73.17,609Z" transform="translate(-10.6 -15.36)"/><path d="M198.22,746.63a8.8,8.8,0,0,0,3.12,3.22c2.94,1.7,4.93.35,5.71-1.07,1.34-2.38-.21-4.62-2.41-5.89l-1.28-.74,1-1.71,1.28.73c1.66,1,4.26,1.32,5.41-.68.78-1.35.62-3-1.49-4.26a7.14,7.14,0,0,0-4-.83l.36-2a9.27,9.27,0,0,1,5.17,1.25c3.32,1.92,3.69,4.77,2.5,6.82-1,1.74-2.89,2.62-5.41,2.17l0,.06a5.07,5.07,0,0,1,1.26,6.51c-1.56,2.7-5,3.85-9.08,1.51a9.92,9.92,0,0,1-3.73-3.68Z" transform="translate(-10.6 -15.36)"/><path d="M228.2,747.49l-6.44-3.72-3.16,4a9.41,9.41,0,0,1,1.44.69,8.26,8.26,0,0,1,3.11,3,5.55,5.55,0,0,1-.08,5.73c-1.91,3.3-6,4.26-9.62,2.14a9.4,9.4,0,0,1-3.61-3.47l1.58-1.41a8.62,8.62,0,0,0,3.07,3c2.15,1.25,4.81.91,6.11-1.35s.68-4.6-2.7-6.55a22.16,22.16,0,0,0-2.44-1.17l5.77-7.47,8.08,4.66Z" transform="translate(-10.6 -15.36)"/><path d="M593.33,763l-.81-1.4.79-2.78c1.94-6.59,2.63-9.9,1.19-12.46-1-1.71-2.74-2.82-5.26-1.36a6.61,6.61,0,0,0-2.76,3.5l-1.66-1.2a8.53,8.53,0,0,1,3.79-4.47c3.64-2.1,6.61-.49,8,1.93,1.8,3.11,1,6.94-.59,12.42l-.63,2,0,0,7.59-4.38,1.09,1.9Z" transform="translate(-10.6 -15.36)"/><path d="M608.1,734.5l-6.44,3.72,1.85,4.72a10.44,10.44,0,0,1,1.32-.9,8.17,8.17,0,0,1,4.16-1.19,5.56,5.56,0,0,1,4.92,2.94c1.91,3.3.71,7.28-3,9.4a9.62,9.62,0,0,1-4.8,1.39l-.44-2.07a8.79,8.79,0,0,0,4.15-1.15c2.16-1.25,3.19-3.71,1.89-6s-3.64-2.89-7-.94A19.43,19.43,0,0,0,602.5,746l-3.59-8.73,8.08-4.67Z" transform="translate(-10.6 -15.36)"/><path d="M743.85,622.75l-1.4-.81-.71-2.8c-1.61-6.68-2.67-9.89-5.2-11.39-1.72-1-3.78-1.07-5.24,1.45a6.67,6.67,0,0,0-.64,4.41l-2-.2a8.54,8.54,0,0,1,1-5.77c2.1-3.64,5.47-3.73,7.89-2.34,3.12,1.8,4.33,5.52,5.71,11.06l.47,2.07,0,0,4.38-7.59,1.89,1.1Z" transform="translate(-10.6 -15.36)"/><path d="M749.4,593.22c5.74,3.31,7.68,7.27,5.52,11-1.91,3.3-6.29,3.75-11.9.58s-7.37-7.51-5.39-10.94S744,590.11,749.4,593.22Zm-5,9.32c4.39,2.53,7.67,2.62,8.87.54,1.35-2.34-.74-5-5.05-7.52-4.16-2.4-7.5-2.91-8.86-.54C738.16,597,739.76,599.88,744.36,602.54Z" transform="translate(-10.6 -15.36)"/><path d="M800.76,403.69v-.06l-1.83-3.39,2-.51,2.28,4.26v2.25h-19.5v-2.55Z" transform="translate(-10.6 -15.36)"/><path d="M801,425v-7.44l-5-.75a10.43,10.43,0,0,1,.12,1.59,8.24,8.24,0,0,1-1.05,4.2,5.56,5.56,0,0,1-5,2.79c-3.81,0-6.66-3-6.66-7.26a9.55,9.55,0,0,1,1.2-4.86l2,.66a8.73,8.73,0,0,0-1.08,4.17c0,2.49,1.62,4.62,4.23,4.62s4.32-1.71,4.32-5.61a20.17,20.17,0,0,0-.21-2.7l9.36,1.26V425Z" transform="translate(-10.6 -15.36)"/><path d="M743.84,207.88l0,0-3.28-2,1.49-1.45,4.1,2.55,1.13,2-16.89,9.75-1.28-2.21Z" transform="translate(-10.6 -15.36)"/><path d="M749,231c-5.74,3.31-10.14,3-12.3-.73-1.91-3.3-.11-7.32,5.45-10.59s10.19-2.63,12.17.8S754.4,227.9,749,231Zm-5.56-9c-4.39,2.53-6.1,5.32-4.9,7.4,1.35,2.34,4.72,1.88,9-.61,4.16-2.4,6.27-5,4.91-7.4C751.34,219.38,748.06,219.33,743.46,222Z" transform="translate(-10.6 -15.36)"/><path d="M599.36,76.51c-3.31,5.74-7.27,7.68-11,5.52-3.3-1.91-3.75-6.29-.58-11.9s7.51-7.38,10.94-5.4S602.47,71.13,599.36,76.51Zm-9.32-5c-2.53,4.39-2.62,7.67-.54,8.87,2.34,1.35,5-.74,7.52-5s2.91-7.5.54-8.86C595.56,65.27,592.7,66.87,590,71.47Z" transform="translate(-10.6 -15.36)"/><path d="M615.21,77.2l-6.44-3.72-3.16,4a10.39,10.39,0,0,1,1.44.69,8.19,8.19,0,0,1,3.11,3,5.55,5.55,0,0,1-.09,5.73c-1.9,3.3-6,4.25-9.62,2.14a9.57,9.57,0,0,1-3.6-3.47l1.57-1.41a8.79,8.79,0,0,0,3.07,3c2.16,1.24,4.81.9,6.12-1.36s.68-4.59-2.7-6.54a19,19,0,0,0-2.44-1.17l5.77-7.48,8.08,4.67Z" transform="translate(-10.6 -15.36)"/><path d="M263.81,380.23h-2.92V368.36l-15.65,11.33-15.3-11.08v11.57h-3V363.1l18.33,13.39,18.55-13.44Z" transform="translate(-10.6 -15.36)"/><path d="M201.24,362.94a11,11,0,0,1,9.41,4.26c2.1,2.65,1.46,7.84-.39,9.77-3.66,3.83-7.94,4.72-12.78,3.28s-8.07-5.71-6.56-10.65c1-3.13,3.36-5,6.38-6.08A9.82,9.82,0,0,1,201.24,362.94Zm.26,2.43c-2.72-.07-5.69,1.24-6.84,3.16a6,6,0,0,0,2.71,8.94c4.28,2,8.17.88,11-3a4.38,4.38,0,0,0,.35-4.8A7.86,7.86,0,0,0,201.5,365.37Z" transform="translate(-10.6 -15.36)"/><path d="M289.33,362.87c4.37,0,8,1.73,10.09,5.67a7.09,7.09,0,0,1-.36,7.17c-3.19,5.46-10.5,6.29-15.21,3.93s-6.54-6.89-4.14-11.71c1.53-3.07,4.53-4.44,7.87-4.94C288.14,362.9,288.71,362.91,289.33,362.87Zm-7.77,8.87a5.39,5.39,0,0,0,2.46,4.84,8.67,8.67,0,0,0,11.39-.65c1.9-1.87,2.19-6,.32-7.89a9,9,0,0,0-7.71-2.6C284.65,365.83,281.32,369,281.56,371.74Z" transform="translate(-10.6 -15.36)"/><path d="M330.24,366.58l-2.77,1a8.41,8.41,0,0,0-9.19-1.52,1.77,1.77,0,0,0-1.18,1.79c0,.78.51,1.12,1.19,1.41a33.68,33.68,0,0,0,6,1.39,11.7,11.7,0,0,1,5.1,2,4,4,0,0,1,.18,5.92,9.37,9.37,0,0,1-5.18,2.13c-3.54.35-7,.21-10-2.2a4.3,4.3,0,0,1-1.27-1.92c.81-.59,1.81-.47,2.67-1a7,7,0,0,0,5.74,2.88c2.27.11,4.43-.14,6.1-2.17a1.88,1.88,0,0,0,0-1.2,6.25,6.25,0,0,0-3.92-1.93c-2.46-.53-5-.7-7.33-1.77-1.41-.64-2.54-1.48-2.65-3.23a3.88,3.88,0,0,1,2.28-3.87,13.42,13.42,0,0,1,11.78,0C328.82,364.69,329.41,365.66,330.24,366.58Z" transform="translate(-10.6 -15.36)"/><path d="M173.73,363.64a10.91,10.91,0,0,1,2.92,0v17.09l-16.07-11.93v11.31a8.26,8.26,0,0,1-2.71.1V363.44l15.86,11.74Z" transform="translate(-10.6 -15.36)"/><path d="M247.21,389.66a2.77,2.77,0,0,1,1.7.06v10.82a3,3,0,0,1-1.64.09v-5.36h-3.58c-.36,1.75,0,3.5-.22,5.2-.45.36-.9.2-1.49.16V389.76c.41-.33.87-.19,1.39-.13.41,1.33,0,2.74.27,4.17,1.13.39,2.28.1,3.57.17Z" transform="translate(-10.6 -15.36)"/><path d="M188.44,391.56a1.2,1.2,0,0,1-1.11.45c-.47-.15-.55-.71-1-1a2.4,2.4,0,0,0-2.6,0,8.88,8.88,0,0,0-.09,7.88,2.57,2.57,0,0,0,2.87.38,3.67,3.67,0,0,0,.87-3.06c-.59-.52-1.27-.13-1.85-.39-.37-.25-.17-.6-.2-1a18.19,18.19,0,0,1,3.61-.06,6.77,6.77,0,0,1,0,3c-.29,2-1.28,2.9-3.4,3.07a3.84,3.84,0,0,1-4.12-2.51,11.63,11.63,0,0,1,0-6.69c.48-1.55,1.79-2.28,3.78-2.24A3,3,0,0,1,188.44,391.56Z" transform="translate(-10.6 -15.36)"/><path d="M265.79,399.68c-2.7,1.68-4.44,1.59-6.08,0a2.1,2.1,0,0,1-.68-1.48c0-2.81,0-5.63,0-8.42a1.73,1.73,0,0,1,1.51-.11c.42,3.06-.25,6.21.4,9.21a2.62,2.62,0,0,0,3.14.31c.89-3,0-6.28.49-9.45a1.87,1.87,0,0,1,1.59,0C266,393.07,266.49,396.49,265.79,399.68Z" transform="translate(-10.6 -15.36)"/><path d="M213.48,389.7a2.89,2.89,0,0,1,1.68-.06l3.63,10.86a2.51,2.51,0,0,1-1.63.13c-.43-.53-.4-1.24-.73-2a12.13,12.13,0,0,0-4.25,0l-.63,1.91a2.48,2.48,0,0,1-1.63.09Zm2.24,7.41a22.44,22.44,0,0,0-1.42-5.28,17.64,17.64,0,0,0-1.4,5.39A7.65,7.65,0,0,0,215.72,397.11Z" transform="translate(-10.6 -15.36)"/><path d="M305.16,390.73v3.45h3.54c.53.39.38.75.29,1.25h-3.83v4.06h3.66a.79.79,0,0,1,.39,1.13h-5.77v-11c1.94-.21,3.86-.06,5.69-.09a.88.88,0,0,1-.1,1.17Z" transform="translate(-10.6 -15.36)"/><path d="M232,390.14c-.17.45-.25.76-.44.86-.52.24-.77-.14-1.11-.22-.84-.2-1.67-.24-2.17.64a1.72,1.72,0,0,0,.55,2.21,23.89,23.89,0,0,0,2.14,1.74,3.26,3.26,0,0,1,1.36,3.74,3,3,0,0,1-2.95,1.81,3.89,3.89,0,0,1-2.92-1c-.19-.46.05-.74.29-1.1,1.12.19,2.13,1.39,3.42.52.76-1.33.66-2.41-.52-3.2-.73-.49-1.29-1.19-2-1.64-1.25-.8-1.27-1.92-1.11-3.12s1.22-1.56,2.2-1.86A3.74,3.74,0,0,1,232,390.14Z" transform="translate(-10.6 -15.36)"/><path d="M199.45,399.52h3.6c.07.67-.4.84-.61,1.14H197.8v-11c.5-.31,1-.12,1.65,0Z" transform="translate(-10.6 -15.36)"/><path d="M288.55,390.68c-.07-.4-.16-.7.14-1.05H295a.81.81,0,0,1,.09,1c-.68.31-1.43,0-2.31.28v9.44a2,2,0,0,1-1.71.22V391C290.18,390.63,289.38,390.93,288.55,390.68Z" transform="translate(-10.6 -15.36)"/><path d="M276.83,391.15c-1.06-.58-1.93-.17-2.71-.46-.28-.31-.23-.63,0-1.05h6.7c.36.28.26.63.15,1-.74.42-1.64-.1-2.58.5v9.18a1.28,1.28,0,0,1-1.53.21Z" transform="translate(-10.6 -15.36)"/><path d="M261.75,388.15a1.68,1.68,0,0,1-1.64.06c-.33-.62-.29-1.19.56-1.28C261.36,386.85,262,387.08,261.75,388.15Z" transform="translate(-10.6 -15.36)"/><path d="M263.78,388.21a.79.79,0,0,1-.18-.76.56.56,0,0,1,.45-.45c1.18,0,1.18,0,1.36,1.06A1.36,1.36,0,0,1,263.78,388.21Z" transform="translate(-10.6 -15.36)"/><path d="M318,809.7l.12-.15c0-.06.09-.1.13-.15,1.59-1.57,3.17-3.15,4.72-4.74a.19.19,0,0,1,.12-.07.34.34,0,0,1,.13,0l.42.1q-1,4-2,8l-.53-.13c.58-2.27,1.15-4.55,1.73-6.83l0-.14a1.42,1.42,0,0,0,.05-.16c-1.56,1.6-3.13,3.19-4.73,4.77a.27.27,0,0,1-.28.08l-.09,0a.27.27,0,0,1-.2-.21c-.65-2.15-1.27-4.3-1.88-6.45a1.65,1.65,0,0,1-.07.32c-.61,2.26-1.24,4.52-1.86,6.77l-.54-.14q1.11-4,2.2-8l.41.11.13,0a.22.22,0,0,1,.07.12c.61,2.14,1.23,4.27,1.87,6.41A2.32,2.32,0,0,1,318,809.7Z" transform="translate(-10.6 -15.36)"/><path d="M336.15,815.94l-.49-.09a.27.27,0,0,1-.13-.07.31.31,0,0,1-.06-.13c-.17-.86-.34-1.71-.5-2.57-1.4-.28-2.8-.58-4.19-.88l-1.53,2.12a.31.31,0,0,1-.11.09.22.22,0,0,1-.16,0l-.47-.11q2.69-3.65,5.28-7.33l.6.12C335,810.05,335.54,813,336.15,815.94Zm-5.09-4.14q1.9.42,3.81.81c-.29-1.49-.57-3-.84-4.46a3.28,3.28,0,0,1-.07-.52l-.14.25-.13.21Q332.39,810,331.06,811.8Z" transform="translate(-10.6 -15.36)"/><path d="M351,814.4a4.53,4.53,0,0,1-.58,1.67,3.57,3.57,0,0,1-2.5,1.76,4.57,4.57,0,0,1-1.73,0l-3.16-.56c.51-2.73,1-5.45,1.51-8.18l3.09.54a4.74,4.74,0,0,1,1.6.56,3.65,3.65,0,0,1,1.76,2.46A4.66,4.66,0,0,1,351,814.4Zm-.64-.1a4.36,4.36,0,0,0,0-1.57,3.22,3.22,0,0,0-.51-1.26,3,3,0,0,0-1-.88,3.8,3.8,0,0,0-1.35-.48l-2.48-.43q-.66,3.62-1.33,7.22l2.53.45a4,4,0,0,0,1.46,0,3.09,3.09,0,0,0,1.23-.53,3.44,3.44,0,0,0,.9-1A4.35,4.35,0,0,0,350.4,814.3Z" transform="translate(-10.6 -15.36)"/><path d="M364.2,812l-.06.5c-1.5-.18-3-.37-4.49-.58-.16,1.12-.32,2.23-.47,3.35l3.78.5-.07.48-3.78-.49c-.16,1.15-.32,2.3-.49,3.45,1.54.21,3.07.41,4.61.6l-.08.5c-1.74-.22-3.49-.45-5.23-.69.39-2.76.79-5.52,1.17-8.28C360.8,811.61,362.5,811.84,364.2,812Z" transform="translate(-10.6 -15.36)"/><path d="M380.25,822.09l-.64-.05.66-8.39.63.05Q380.57,817.89,380.25,822.09Z" transform="translate(-10.6 -15.36)"/><path d="M389.34,814.26a.26.26,0,0,1,.1.09q2.6,3.79,5.31,7.57c0-.12,0-.24,0-.35q.13-3.54.26-7.09l.55,0-.3,8.45H395a.25.25,0,0,1-.13,0,.24.24,0,0,1-.1-.1q-2.73-3.76-5.34-7.57a1.82,1.82,0,0,1,0,.33c-.12,2.37-.25,4.73-.37,7.1l-.57,0q.24-4.21.46-8.43l.31,0A.23.23,0,0,1,389.34,814.26Z" transform="translate(-10.6 -15.36)"/><path d="M418.11,822.94a5.47,5.47,0,0,1-1.68.28,5.61,5.61,0,0,1-1.89-.27,4.15,4.15,0,0,1-1.44-.86,3.9,3.9,0,0,1-.92-1.36,5.41,5.41,0,0,1-.05-3.58,3.87,3.87,0,0,1,.85-1.38,3.72,3.72,0,0,1,1.35-.9,5,5,0,0,1,1.79-.35,5.26,5.26,0,0,1,.91.05,3.71,3.71,0,0,1,.78.17,3.79,3.79,0,0,1,.68.3,4.14,4.14,0,0,1,.61.42c-.05.09-.1.18-.16.27a.18.18,0,0,1-.25.07.92.92,0,0,1-.27-.16,3.36,3.36,0,0,0-.48-.26,4.15,4.15,0,0,0-.75-.24,4.27,4.27,0,0,0-1.08-.09,4,4,0,0,0-1.51.3,3.28,3.28,0,0,0-1.15.77,3.37,3.37,0,0,0-.72,1.22,4.43,4.43,0,0,0-.24,1.59,4.76,4.76,0,0,0,.28,1.61,3.56,3.56,0,0,0,.78,1.2,3.34,3.34,0,0,0,1.23.75,4.67,4.67,0,0,0,1.62.23,4.47,4.47,0,0,0,1.94-.44l.56-.31c0-.77,0-1.53-.07-2.29l-1.67,0a.16.16,0,0,1-.12,0,.14.14,0,0,1-.05-.09v-.34l2.4-.07c0,1,.07,2,.1,3A5.38,5.38,0,0,1,418.11,822.94Z" transform="translate(-10.6 -15.36)"/><path d="M431.93,813.9c0,.17,0,.34,0,.51l-4.53.28c.06,1.15.12,2.3.19,3.45l3.81-.23,0,.5-3.81.23c.06,1.18.13,2.37.2,3.55,1.55-.08,3.09-.17,4.64-.27l0,.51c-1.76.12-3.52.22-5.28.31q-.24-4.28-.47-8.53C428.5,814.12,430.22,814,431.93,813.9Z" transform="translate(-10.6 -15.36)"/><path d="M440.34,817.94l.36,3.86-.64.06c-.26-2.85-.52-5.69-.77-8.54l2.19-.2a3.6,3.6,0,0,1,2.27.35,2,2,0,0,1,.91,1.6,2.12,2.12,0,0,1-.08.91,2.27,2.27,0,0,1-.42.76,2.53,2.53,0,0,1-.73.58,3.31,3.31,0,0,1-1,.35,1.48,1.48,0,0,1,.29.22c1.12,1.14,2.24,2.27,3.38,3.4l-.54.05a.51.51,0,0,1-.18,0,.48.48,0,0,1-.15-.11q-1.59-1.59-3.15-3.2l-.11-.1-.13-.07-.15,0h-.22Zm0-.46,1.5-.14a3.47,3.47,0,0,0,1-.23,2.24,2.24,0,0,0,.73-.47A1.66,1.66,0,0,0,444,816a2,2,0,0,0,.08-.82,1.56,1.56,0,0,0-.74-1.29,2.83,2.83,0,0,0-1.78-.27l-1.57.14C440.07,815,440.18,816.24,440.3,817.48Z" transform="translate(-10.6 -15.36)"/><path d="M457.22,817.8a1.46,1.46,0,0,1,0-.2,1.07,1.07,0,0,1,.07-.19c.85-2.14,1.69-4.28,2.5-6.42a.26.26,0,0,1,.09-.11.4.4,0,0,1,.13,0l.42-.06q.64,4.26,1.3,8.54l-.55.08c-.37-2.43-.73-4.85-1.09-7.28a.78.78,0,0,1,0-.16.88.88,0,0,1,0-.17c-.82,2.16-1.66,4.3-2.52,6.45a.27.27,0,0,1-.22.19h-.1a.25.25,0,0,1-.26-.12q-2.17-2.75-4.29-5.52a2.21,2.21,0,0,1,.06.34c.31,2.42.63,4.85.94,7.28l-.55.07q-.56-4.28-1.09-8.55l.43-.05h.13a.22.22,0,0,1,.11.09q2.1,2.74,4.27,5.48A3.37,3.37,0,0,1,457.22,817.8Z" transform="translate(-10.6 -15.36)"/><path d="M476.45,816.83l-.48.09a.24.24,0,0,1-.15,0,.27.27,0,0,1-.11-.1c-.5-.76-1-1.52-1.48-2.29-1.41.27-2.81.52-4.22.77-.19.88-.38,1.76-.58,2.65a.31.31,0,0,1-.06.13.27.27,0,0,1-.14.07l-.48.08q1-4.56,2-9.14l.6-.11Q473.85,812.91,476.45,816.83Zm-6.34-2,3.84-.7q-1.27-2-2.53-4a5,5,0,0,1-.26-.48c0,.1,0,.2,0,.29a1.45,1.45,0,0,1,0,.25C470.76,811.71,470.44,813.25,470.11,814.79Z" transform="translate(-10.6 -15.36)"/><path d="M482,806.86a.31.31,0,0,1,.12.07q3.51,3.11,7.12,6.13c0-.11-.07-.23-.1-.34q-.83-3.56-1.64-7.12l.52-.12q1,4.24,2,8.48l-.29.07h-.14a.25.25,0,0,1-.12-.07q-3.63-3-7.15-6.13a2.77,2.77,0,0,1,.09.33c.51,2.39,1,4.77,1.54,7.16l-.55.11q-.92-4.24-1.81-8.5l.3-.06A.2.2,0,0,1,482,806.86Z" transform="translate(-10.6 -15.36)"/><path d="M499.59,807.86c.31,1.16.62,2.32.92,3.48l-.61.16c-.3-1.16-.61-2.32-.91-3.48q-2.21-2.07-4.37-4.17l.53-.13a.17.17,0,0,1,.14,0,.27.27,0,0,1,.12.09l3.38,3.26a2.19,2.19,0,0,1,.21.23,1.74,1.74,0,0,1,.18.22,2.7,2.7,0,0,1,0-.28c0-.1,0-.2.07-.3.46-1.51.9-3,1.34-4.53a.31.31,0,0,1,.06-.13.25.25,0,0,1,.12-.08l.53-.14C500.77,804,500.19,805.93,499.59,807.86Z" transform="translate(-10.6 -15.36)"/></svg>